<svg width="72" height="15" viewBox="0 0 72 15" fill="none" xmlns="http://www.w3.org/2000/svg">
<g clip-path="url(#clip0_2013_304)">
<path fill-rule="evenodd" clip-rule="evenodd" d="M47.4528 8.21078C47.4954 8.49078 47.5167 8.70616 47.5807 8.92155C48.0499 10.9246 49.6068 12.26 51.6329 12.4323C53.4243 12.5831 54.8319 11.8939 55.8769 10.4077C56.3888 9.69693 57.2205 9.5677 57.8817 10.1492C58.2656 10.4723 58.3082 10.9031 58.0097 11.3123C57.839 11.5277 57.6897 11.7431 57.5191 11.98C56.8367 12.9277 55.9409 13.5739 54.8319 13.9615C53.0405 14.5862 51.249 14.6723 49.4788 14.0046C47.0902 13.1215 45.6826 11.3554 45.2774 8.83539C45.0428 7.28463 45.1921 5.73386 45.8959 4.33386C46.9196 2.33078 48.5191 1.10309 50.7371 0.736934C52.2087 0.500011 53.6589 0.65078 55.0239 1.31847C56.9646 2.24463 58.1376 3.81693 58.5855 5.90616C58.7134 6.4877 58.7561 7.06924 58.7988 7.65078C58.8414 8.01693 58.6708 8.1677 58.3082 8.18924C58.1376 8.18924 57.9883 8.18924 57.8177 8.18924C54.512 8.18924 51.2063 8.18924 47.922 8.18924C47.7727 8.21078 47.666 8.21078 47.4528 8.21078ZM56.4741 6.01386C56.1968 4.14001 53.9575 2.50309 51.8888 2.63232C49.7348 2.76155 47.6021 4.42001 47.5167 6.01386C50.4812 6.01386 53.4883 6.01386 56.4741 6.01386Z" fill="black"/>
<path fill-rule="evenodd" clip-rule="evenodd" d="M30.519 8.14614C30.5403 8.33999 30.5617 8.46922 30.583 8.61999C30.9882 10.8385 32.7797 12.3677 34.9977 12.4108C36.6825 12.4323 37.9835 11.7431 38.9645 10.3646C39.4764 9.6323 40.3934 9.54614 41.0332 10.1923C41.3318 10.5154 41.3958 10.9031 41.0972 11.2908C40.9692 11.4846 40.8413 11.6569 40.692 11.8077C39.9669 12.8846 38.9645 13.5738 37.7489 13.9831C35.9574 14.5861 34.1659 14.6292 32.4384 13.94C29.9645 12.9708 28.5783 11.0538 28.2797 8.38307C28.1304 7.09076 28.2584 5.84153 28.7915 4.65691C29.8366 2.41691 31.5214 1.03845 33.974 0.715372C35.2749 0.543064 36.5759 0.650756 37.7702 1.14614C39.9456 2.05076 41.2038 3.7523 41.6944 6.05691C41.7797 6.57384 41.8437 7.13384 41.865 7.65076C41.8863 8.08153 41.801 8.16768 41.3531 8.16768C40.5854 8.16768 39.7749 8.16768 38.9858 8.16768C36.3413 8.16768 33.6967 8.16768 31.0948 8.16768C30.9029 8.14614 30.7323 8.14614 30.519 8.14614ZM39.583 5.94922C39.3057 4.09691 37.1304 2.5246 34.9977 2.56768C32.929 2.61076 30.7749 4.29076 30.6043 5.94922C33.5901 5.94922 36.5546 5.94922 39.583 5.94922Z" fill="black"/>
<path fill-rule="evenodd" clip-rule="evenodd" d="M67.628 9.13692C67.7987 9.28768 67.884 9.37384 67.9906 9.45999C69.1423 10.4508 70.2939 11.4415 71.4243 12.4323C71.4882 12.4969 71.5949 12.5831 71.6589 12.6477C72.0854 13.0785 72.128 13.7031 71.7228 14.1338C71.3389 14.5646 70.7418 14.6292 70.2939 14.2631C69.4835 13.5954 68.7157 12.9061 67.9266 12.2385C66.7963 11.2692 65.6873 10.3 64.5569 9.33076C64.4716 9.24461 64.3437 9.15845 64.1731 9.02922C64.1731 9.26615 64.1517 9.41691 64.1517 9.56768C64.1517 12.3031 64.1517 10.2569 64.1517 12.9923C64.1517 13.1215 64.1517 13.2508 64.1517 13.38C64.1091 13.9831 63.6612 14.4138 63.0641 14.3708C62.4882 14.3492 62.1043 13.9185 62.083 13.3154C62.083 13.1861 62.083 13.0569 62.083 12.9277C62.083 7.52153 62.083 6.89692 62.083 1.49076C62.083 1.31845 62.083 1.16768 62.083 0.995376C62.083 0.607684 62.1257 0.543069 62.4882 0.543069C62.9787 0.52153 63.4693 0.52153 63.9598 0.52153C65.1328 0.52153 66.3484 0.564607 67.5214 0.499992C69.5048 0.413838 71.7228 2.02922 71.9361 4.37692C72.128 6.48768 70.6991 8.49076 68.5664 8.92153C68.2892 8.98615 67.9906 9.0723 67.628 9.13692ZM64.0238 7.47845C64.1517 7.49999 64.237 7.49999 64.301 7.49999C65.2821 7.49999 66.2844 7.49999 67.2655 7.49999C67.5427 7.49999 67.8413 7.47845 68.1186 7.37076C69.0356 7.09076 69.7607 6.53076 69.9953 5.53999C70.4006 3.83845 69.1423 2.28768 67.4148 2.28768C66.3911 2.28768 65.3887 2.28768 64.3437 2.28768C64.2157 2.28768 64.1091 2.30922 63.9811 2.30922C64.0238 4.0323 64.0238 5.73384 64.0238 7.47845Z" fill="black"/>
<path fill-rule="evenodd" clip-rule="evenodd" d="M22.841 8.16768C20.8789 8.16768 18.9808 8.16768 17.0401 8.16768C17.0401 8.33999 17.0188 8.49076 17.0188 8.64153C17.0188 10.1492 17.0188 11.6354 17.0188 13.1431C17.0188 13.3369 17.0188 13.5308 16.9761 13.6815C16.8268 14.1338 16.3576 14.4138 15.9098 14.3923C15.4192 14.3492 15.014 13.9615 14.95 13.4661C14.9287 13.3369 14.95 13.2292 14.95 13.1C14.95 7.73691 14.9287 7.09076 14.9287 1.74922C14.9287 1.53384 14.95 1.31845 15.014 1.12461C15.1846 0.6723 15.6538 0.413838 16.1443 0.478454C16.5922 0.543069 16.9761 0.930761 17.0188 1.40461C17.0401 1.55538 17.0188 1.68461 17.0188 1.83538C17.0188 4.5923 17.0401 2.6323 17.0401 5.38922C17.0401 5.56153 17.0614 5.7123 17.0614 5.86307C17.424 5.94922 22.4571 5.94922 22.841 5.86307C22.841 5.73384 22.8624 5.60461 22.8624 5.45384C22.8624 4.24768 22.8624 3.01999 22.8624 1.81384C22.8624 1.68461 22.8624 1.57691 22.8624 1.44768C22.905 0.909223 23.3102 0.499992 23.8434 0.478454C24.3766 0.456915 24.8671 0.866146 24.9311 1.40461C24.9524 1.53384 24.9311 1.64153 24.9311 1.77076C24.9311 5.53999 24.9311 9.28768 24.9311 13.0569C24.9311 13.1861 24.9311 13.2938 24.9311 13.4231C24.8671 13.9615 24.3979 14.3923 23.8647 14.3708C23.3315 14.3492 22.905 13.9185 22.841 13.38C22.841 13.2508 22.841 13.1431 22.841 13.0138C22.841 11.5708 22.841 10.0846 22.841 8.64153C22.841 8.5123 22.841 8.36153 22.841 8.16768Z" fill="black"/>
<path fill-rule="evenodd" clip-rule="evenodd" d="M5.8649 14.4785C4.47865 14.4569 3.1777 14.1554 1.98339 13.4231C1.47154 13.1215 1.00234 12.7338 0.618457 12.2815C0.426514 12.0446 0.191916 11.8077 0.106608 11.5061C-0.0213538 11.1185 -0.0426808 10.6877 0.319878 10.3431C0.725092 9.95538 1.27959 9.80461 1.8341 10.1708C2.36727 10.5585 2.6232 11.0538 3.07106 11.5061C3.71087 12.1523 4.54263 12.4969 5.43836 12.6046C6.27011 12.6908 7.08054 12.6692 7.89097 12.3892C8.21087 12.26 8.55211 12.1092 8.82936 11.8938C9.3412 11.3123 9.49049 10.4938 8.87201 9.93384C8.57343 9.67538 8.18955 9.48153 7.80566 9.30922C6.86727 8.89999 5.88623 8.61999 4.90519 8.36153C4.09476 8.16768 3.32699 7.90922 2.51656 7.6723C2.21798 7.58615 1.9194 7.41384 1.64215 7.26307C0.895708 6.85384 0.469168 6.20768 0.341205 5.38922C0.106608 3.68769 0.725092 2.15845 2.19666 1.40461C4.49997 0.26307 6.8886 0.370762 9.19192 1.68461C9.61846 1.92153 10.0237 2.28769 10.3862 2.61076C10.6635 2.84769 10.8767 3.1923 10.9834 3.55845C11.09 4.01076 10.8767 4.48461 10.3222 4.61384C9.85305 4.72153 9.42651 4.57076 9.08528 4.20461C9.0213 4.13999 8.95732 4.05384 8.91466 3.98922C8.38149 3.17076 7.59239 2.71845 6.654 2.54615C5.71561 2.37384 4.77722 2.39538 3.88149 2.76153C3.56158 2.89076 3.22035 3.06307 2.96443 3.29999C2.58054 3.81692 2.43125 4.50615 2.9431 5.1523C3.34831 5.53999 3.81751 5.75538 4.32936 5.86307C5.45969 6.14307 6.61135 6.44461 7.74168 6.72461C8.4668 6.91845 9.17059 7.15538 9.83173 7.54307C10.6848 7.99538 11.3033 8.66307 11.5166 9.6323C11.7725 10.8169 11.5166 11.9369 10.5995 12.7985C9.55447 13.7461 8.36016 14.2631 6.97391 14.4138C6.59002 14.4569 6.20613 14.4569 5.8649 14.4785Z" fill="black"/>
</g>
<defs>
<clipPath id="clip0_2013_304">
<rect width="72" height="14" fill="white" transform="translate(0 0.5)"/>
</clipPath>
</defs>
</svg>
