<svg width="24" height="24" viewBox="0 0 24 24" fill="none" xmlns="http://www.w3.org/2000/svg">
<path d="M17.1711 24H6.8289C3.05703 24 0 20.9278 0 17.1711V6.8289C0 3.05703 3.07224 0 6.8289 0H17.1711C20.943 0 24 3.07224 24 6.8289V17.1711C24 20.9278 20.9278 24 17.1711 24ZM6.8289 2.05323C4.19772 2.05323 2.05323 4.19772 2.05323 6.8289V17.1711C2.05323 19.8023 4.19772 21.9468 6.8289 21.9468H17.1711C19.8023 21.9468 21.9468 19.8023 21.9468 17.1711V6.8289C21.9468 4.19772 19.8023 2.05323 17.1711 2.05323H6.8289Z" fill="#6B6B6B"/>
<path d="M12 18.1445C8.60832 18.1445 5.85547 15.3917 5.85547 12C5.85547 8.60838 8.60832 5.85553 12 5.85553C15.3916 5.85553 18.1444 8.60838 18.1444 12C18.1444 15.3764 15.3764 18.1445 12 18.1445ZM12 7.90876C9.7338 7.90876 7.9087 9.73386 7.9087 12C7.9087 14.2662 9.749 16.0913 12 16.0913C14.2509 16.0913 16.0912 14.251 16.0912 12C16.0912 9.74907 14.2509 7.90876 12 7.90876Z" fill="#6B6B6B"/>
<path d="M19.8783 5.49048C19.8783 6.31178 19.2243 6.96577 18.403 6.96577C17.5817 6.96577 16.9277 6.31178 16.9277 5.49048C16.9277 4.66919 17.5817 4.0152 18.403 4.0152C19.2243 4.0152 19.8783 4.6844 19.8783 5.49048Z" fill="#6B6B6B"/>
</svg>
