<svg width="184" height="57" viewBox="0 0 184 57" fill="none" xmlns="http://www.w3.org/2000/svg">
<g clip-path="url(#clip0_2008_505)">
<path d="M28.3393 2.47826C42.6321 2.47826 54.2143 14.1261 54.2143 28.5C54.2143 42.8739 42.6321 54.5217 28.3393 54.5217C14.0464 54.4391 2.46429 42.7913 2.46429 28.5C2.46429 14.1261 14.0464 2.47826 28.3393 2.47826ZM28.3393 0C12.65 0 0 12.7217 0 28.5C0 44.1957 12.65 57 28.3393 57C44.0286 57 56.6786 44.1957 56.6786 28.5C56.6786 12.7217 43.9464 0 28.3393 0Z" fill="black"/>
<path d="M55.3644 29.7391H28.3394V27.2609H55.3644V29.7391Z" fill="black"/>
<path d="M54.2142 1.23913C54.8713 1.23913 55.3642 1.73478 55.3642 2.39565C55.3642 3.05652 54.8713 3.55217 54.2142 3.55217C53.557 3.55217 53.0642 3.05652 53.0642 2.39565C53.0642 1.81739 53.557 1.23913 54.2142 1.23913ZM54.2142 0C52.8999 0 51.832 1.07391 51.832 2.39565C51.832 3.71739 52.8999 4.7913 54.2142 4.7913C55.5285 4.7913 56.5963 3.71739 56.5963 2.39565C56.6785 1.07391 55.5285 0 54.2142 0Z" fill="black"/>
<path d="M90.1107 32.6304C90.1107 35.687 87.8928 38 84.0321 38H75.4893V19H83.95C87.7285 19 89.7821 21.2304 89.7821 24.1217C89.7821 25.8565 89.0428 27.3435 87.4 28.2522C89.2071 29.2435 90.1107 30.7304 90.1107 32.6304ZM78.2 27.2609H83.7857C85.9214 27.2609 87.0714 26.187 87.0714 24.287C87.0714 22.4696 86.0035 21.4783 83.7857 21.4783H78.2V27.2609ZM83.8678 35.4391C86.0857 35.4391 87.2357 34.3652 87.2357 32.4652C87.2357 30.5652 86.0857 29.6565 83.8678 29.6565H78.2V35.5217H83.8678V35.4391Z" fill="black"/>
<path d="M93.1499 30.2348V19H95.8606V30.2348C95.8606 33.2913 98.2428 35.687 101.364 35.687C104.486 35.687 106.868 33.3739 106.868 30.2348V19H109.578V30.2348C109.578 34.7783 106.046 38.2478 101.364 38.2478C96.682 38.2478 93.1499 34.7783 93.1499 30.2348Z" fill="black"/>
<path d="M126.582 38L120.422 30.1522H116.889V38H114.179V19H122.393C126.254 19 128.472 21.3957 128.472 24.5348C128.472 27.3435 126.747 29.5739 123.625 29.987L129.868 37.9174H126.582V38ZM116.889 21.4783V27.6739H122.311C124.447 27.6739 125.679 26.6 125.679 24.6174C125.679 22.6348 124.447 21.5609 122.311 21.5609H116.889V21.4783Z" fill="black"/>
<path d="M130.936 28.5C130.936 22.9652 135.207 18.7522 140.793 18.7522C146.378 18.7522 150.65 23.0478 150.65 28.5C150.65 34.0348 146.378 38.2478 140.793 38.2478C135.207 38.2478 130.936 33.9522 130.936 28.5ZM147.775 28.5C147.775 24.4522 144.736 21.3131 140.793 21.3131C136.85 21.3131 133.811 24.4522 133.811 28.5C133.811 32.5478 136.85 35.687 140.793 35.687C144.736 35.6044 147.775 32.5478 147.775 28.5Z" fill="black"/>
<path d="M167.736 32.7956C167.736 36.1826 164.696 38.2478 160.425 38.2478C156.154 38.2478 153.114 36.1826 153.114 32.7956C153.114 30.8956 154.1 29.3261 156.071 28.4174C154.429 27.4261 153.607 25.8565 153.607 24.0391C153.525 20.8174 156.236 18.6696 160.425 18.6696C164.614 18.6696 167.243 20.8174 167.243 24.0391C167.243 25.8565 166.421 27.4261 164.779 28.4174C166.668 29.3261 167.736 30.8956 167.736 32.7956ZM165.107 32.8783C165.107 30.813 163.382 29.5739 160.507 29.5739C157.632 29.5739 155.907 30.813 155.907 32.8783C155.907 34.7783 157.632 35.9348 160.507 35.9348C163.3 35.9348 165.107 34.7783 165.107 32.8783ZM156.236 24.2043C156.236 26.2696 157.796 27.5087 160.425 27.5087C163.054 27.5087 164.614 26.2696 164.614 24.2043C164.614 22.1391 163.054 20.9826 160.425 20.9826C157.879 20.9826 156.236 22.2217 156.236 24.2043Z" fill="black"/>
<path d="M173.568 35.4392H184V38H169.625L169.543 35.687L177.839 29.2435C179.893 27.6739 181.125 26.2696 181.125 24.3696C181.125 22.4696 179.4 21.2305 177.182 21.2305C175.129 21.2305 172.993 21.9739 172.582 25.0305H169.789C170.118 21.0652 173.404 18.7522 177.182 18.7522C181.454 18.7522 183.836 21.0652 183.836 24.1218C183.836 27.1783 181.782 29.0783 178.332 31.8044L173.568 35.4392Z" fill="black"/>
</g>
<defs>
<clipPath id="clip0_2008_505">
<rect width="184" height="57" fill="white"/>
</clipPath>
</defs>
</svg>
