<svg width="280" height="30" viewBox="0 0 280 30" fill="none" xmlns="http://www.w3.org/2000/svg">
<g clip-path="url(#clip0_2013_632)">
<path fill-rule="evenodd" clip-rule="evenodd" d="M190.364 7.19063H189.504V1.77265L187.172 7.19063H186.295L183.982 1.81798V7.19063H183.123V0.594177H184.386L186.762 6.07682L189.127 0.594177H190.364V7.19063Z" fill="black"/>
<path fill-rule="evenodd" clip-rule="evenodd" d="M196.793 0.594174H197.644V7.19063H196.793V5.93781C196.284 6.6999 195.495 7.24623 194.592 7.24623C192.822 7.24623 191.542 5.83326 191.542 3.8927C191.542 1.95093 192.822 0.538574 194.592 0.538574C195.495 0.538574 196.284 1.08551 196.793 1.84699V0.594174ZM196.793 3.8927C196.793 2.45013 195.881 1.404 194.628 1.404C193.374 1.404 192.463 2.44952 192.463 3.8927C192.463 5.33468 193.375 6.3802 194.628 6.3802C195.881 6.3802 196.793 5.33468 196.793 3.8927Z" fill="black"/>
<path fill-rule="evenodd" clip-rule="evenodd" d="M201.972 0.498688C203.331 0.498688 204.47 1.39373 204.872 2.76076H203.9C203.549 1.95093 202.893 1.404 201.972 1.404C200.709 1.404 199.745 2.4888 199.745 3.8927C199.745 5.2966 200.709 6.3802 201.972 6.3802C202.893 6.3802 203.549 5.83326 203.9 5.02223H204.872C204.47 6.38805 203.331 7.2843 201.972 7.2843C200.191 7.2843 198.824 5.80425 198.824 3.8927C198.824 1.97873 200.191 0.498688 201.972 0.498688Z" fill="black"/>
<path fill-rule="evenodd" clip-rule="evenodd" d="M210.305 1.49889H208.113V7.19063H207.237V1.49889H205.046V0.594177H210.305V1.49889Z" fill="black"/>
<path fill-rule="evenodd" clip-rule="evenodd" d="M216.711 4.33447H211.479C211.654 5.53108 212.54 6.39832 213.67 6.39832C214.573 6.39832 215.23 5.89067 215.607 5.12617H216.528C216.098 6.43639 214.942 7.28369 213.67 7.28369C211.917 7.28369 210.567 5.80485 210.567 3.89209C210.567 1.97933 211.873 0.499283 213.662 0.499283C215.162 0.499283 216.852 1.63002 216.712 4.33508L216.711 4.33447ZM211.47 3.4485H215.8C215.713 2.22288 214.66 1.38526 213.636 1.38526C212.433 1.38526 211.628 2.25129 211.47 3.4485Z" fill="black"/>
<path fill-rule="evenodd" clip-rule="evenodd" d="M222.547 2.52567C222.547 3.61833 221.845 4.45596 220.585 4.45596H218.777V7.18942H217.901V0.594177H220.585C221.845 0.594177 222.547 1.4318 222.547 2.52567ZM220.557 3.58026C221.258 3.58026 221.626 3.21342 221.626 2.52567C221.626 1.83732 221.258 1.48015 220.557 1.48015H218.777V3.58026H220.557Z" fill="black"/>
<path fill-rule="evenodd" clip-rule="evenodd" d="M226.349 0.498688C227.708 0.498688 228.846 1.39373 229.249 2.76076H228.277C227.925 1.95093 227.27 1.404 226.349 1.404C225.086 1.404 224.122 2.4888 224.122 3.8927C224.122 5.2966 225.086 6.3802 226.349 6.3802C227.27 6.3802 227.925 5.83326 228.277 5.02223H229.249C228.846 6.38805 227.708 7.2843 226.349 7.2843C224.568 7.2843 223.201 5.80425 223.201 3.8927C223.201 1.97873 224.568 0.498688 226.349 0.498688Z" fill="black"/>
<path fill-rule="evenodd" clip-rule="evenodd" d="M234.489 7.19063L232.114 4.06978L231.22 4.96482V7.19063H230.343V0.594177H231.22V3.87095L234.471 0.594177H235.55L232.745 3.4195L235.638 7.19063H234.489Z" fill="black"/>
<path fill-rule="evenodd" clip-rule="evenodd" d="M240.93 0.594174H241.782V7.19063H240.93V5.93781C240.422 6.6999 239.633 7.24623 238.73 7.24623C236.96 7.24623 235.68 5.83326 235.68 3.8927C235.68 1.95093 236.96 0.538574 238.73 0.538574C239.633 0.538574 240.422 1.08551 240.93 1.84699V0.594174ZM240.93 3.8927C240.93 2.45013 240.019 1.404 238.766 1.404C237.512 1.404 236.601 2.44952 236.601 3.8927C236.601 5.33468 237.512 6.3802 238.766 6.3802C240.019 6.3802 240.93 5.33468 240.93 3.8927Z" fill="black"/>
<path fill-rule="evenodd" clip-rule="evenodd" d="M247.817 7.19063H246.939V4.45656H245.758L243.768 7.19063H242.698L244.741 4.42816C243.724 4.2674 243.172 3.49686 243.172 2.52567C243.172 1.4318 243.872 0.594177 245.136 0.594177H247.817V7.19063H247.817ZM246.939 3.5996V1.45114H245.187C244.485 1.45114 244.091 1.83732 244.091 2.52567C244.091 3.21402 244.485 3.59899 245.187 3.59899H246.939V3.5996Z" fill="black"/>
<path fill-rule="evenodd" clip-rule="evenodd" d="M183.123 18.4937V11.8967H184V17.2035L187.48 11.8967H188.558V18.4937H187.681V13.0474L184.087 18.4937H183.123Z" fill="black"/>
<path fill-rule="evenodd" clip-rule="evenodd" d="M194.516 11.8967H195.392V18.4937H194.516V15.6479H191.009V18.4937H190.133V11.8967H191.009V14.7426H194.516V11.8967Z" fill="black"/>
<path fill-rule="evenodd" clip-rule="evenodd" d="M201.569 12.802H199.378V18.4937H198.502V12.802H196.311V11.8967H201.569V12.802Z" fill="black"/>
<path fill-rule="evenodd" clip-rule="evenodd" d="M207.975 15.6388H202.742C202.917 16.8354 203.803 17.7026 204.934 17.7026C205.837 17.7026 206.494 17.1938 206.871 16.4305H207.792C207.362 17.7407 206.206 18.588 204.934 18.588C203.181 18.588 201.832 17.1092 201.832 15.1964C201.832 13.2824 203.137 11.8036 204.926 11.8036C206.426 11.8036 208.116 12.9343 207.976 15.6394L207.975 15.6388ZM202.734 14.7528H207.064C206.977 13.5272 205.924 12.6896 204.899 12.6896C203.697 12.6896 202.892 13.5556 202.734 14.7528Z" fill="black"/>
<path fill-rule="evenodd" clip-rule="evenodd" d="M213.285 12.802H210.042V18.4937H209.165V11.8967H213.285V12.802Z" fill="black"/>
<path fill-rule="evenodd" clip-rule="evenodd" d="M218.848 13.83C218.848 14.9214 218.147 15.7621 216.886 15.7621H215.08V18.4937H214.203V11.8973H216.886C218.147 11.8973 218.848 12.7355 218.848 13.8306V13.83ZM216.858 14.8834C217.56 14.8834 217.928 14.5165 217.928 13.83C217.928 13.1404 217.56 12.7833 216.858 12.7833H215.079V14.8834H216.858Z" fill="black"/>
<path fill-rule="evenodd" clip-rule="evenodd" d="M219.899 18.4937V11.8967H220.776V17.2035L224.256 11.8967H225.332V18.4937H224.458V13.0474L220.864 18.4937H219.899Z" fill="black"/>
<path fill-rule="evenodd" clip-rule="evenodd" d="M231.555 13.83C231.555 14.9214 230.852 15.7621 229.591 15.7621H227.785V18.4937H226.909V11.8973H229.591C230.852 11.8973 231.554 12.7355 231.554 13.8306L231.555 13.83ZM229.564 14.8834C230.267 14.8834 230.634 14.5165 230.634 13.83C230.634 13.1404 230.267 12.7833 229.564 12.7833H227.785V14.8834H229.564Z" fill="black"/>
<path fill-rule="evenodd" clip-rule="evenodd" d="M232.209 15.1958C232.209 13.2818 233.604 11.803 235.409 11.803C237.215 11.803 238.608 13.2818 238.608 15.1958C238.608 17.1086 237.215 18.5874 235.409 18.5874C233.604 18.5874 232.209 17.1086 232.209 15.1958ZM237.686 15.1958C237.686 13.7919 236.697 12.7071 235.409 12.7071C234.121 12.7071 233.13 13.7919 233.13 15.1958C233.13 16.5997 234.121 17.6833 235.409 17.6833C236.697 17.6833 237.686 16.5997 237.686 15.1958Z" fill="black"/>
<path fill-rule="evenodd" clip-rule="evenodd" d="M244.523 16.6275C244.523 17.6833 243.813 18.4931 242.541 18.4931H239.789V11.8967H242.533C243.75 11.8967 244.435 12.6793 244.435 13.6868C244.435 14.2905 244.198 14.8078 243.655 15.1287C244.242 15.4593 244.523 15.9881 244.523 16.6275H244.523ZM240.665 14.7806H242.489C243.19 14.7806 243.549 14.4029 243.549 13.7333C243.549 13.0927 243.19 12.7645 242.489 12.7645H240.665V14.78V14.7806ZM242.498 17.6259C243.225 17.6259 243.602 17.2591 243.602 16.5894C243.602 15.9392 243.226 15.6019 242.498 15.6019H240.665V17.6259H242.498Z" fill="black"/>
<path fill-rule="evenodd" clip-rule="evenodd" d="M250.473 11.8967H251.323V18.4931H250.473V17.2397C249.964 18.003 249.174 18.5487 248.271 18.5487C246.501 18.5487 245.221 17.1358 245.221 15.1952C245.221 13.2534 246.501 11.8405 248.271 11.8405C249.174 11.8405 249.964 12.3874 250.473 13.1495V11.8961V11.8967ZM250.473 15.1958C250.473 13.7526 249.561 12.7071 248.308 12.7071C247.054 12.7071 246.142 13.7526 246.142 15.1958C246.142 16.6378 247.054 17.6833 248.308 17.6833C249.56 17.6833 250.473 16.6378 250.473 15.1958Z" fill="black"/>
<path fill-rule="evenodd" clip-rule="evenodd" d="M257.28 11.8967H258.157V18.4937H257.28V15.6479H253.774V18.4937H252.896V11.8967H253.774V14.7426H257.28V11.8967Z" fill="black"/>
<path fill-rule="evenodd" clip-rule="evenodd" d="M264.117 11.8967H264.993V18.4937H264.117V15.6479H260.61V18.4937H259.734V11.8967H260.61V14.7426H264.117V11.8967Z" fill="black"/>
<path fill-rule="evenodd" clip-rule="evenodd" d="M266.172 15.1958C266.172 13.2818 267.567 11.803 269.372 11.803C271.177 11.803 272.571 13.2818 272.571 15.1958C272.571 17.1086 271.177 18.5874 269.372 18.5874C267.567 18.5874 266.172 17.1086 266.172 15.1958ZM271.65 15.1958C271.65 13.7919 270.66 12.7071 269.372 12.7071C268.085 12.7071 267.093 13.7919 267.093 15.1958C267.093 16.5997 268.084 17.6833 269.372 17.6833C270.66 17.6833 271.65 16.5997 271.65 15.1958Z" fill="black"/>
<path fill-rule="evenodd" clip-rule="evenodd" d="M273.752 18.4937V11.8973H274.629V17.2041L278.109 11.8973H279.187V18.4937H278.31V13.048L274.716 18.4937H273.752ZM274.857 10.1072H275.576C275.636 10.578 275.97 10.8705 276.47 10.8705C276.969 10.8705 277.303 10.578 277.365 10.1072H278.082C278.013 10.9654 277.391 11.5298 276.47 11.5298C275.549 11.5298 274.926 10.9654 274.857 10.1072Z" fill="black"/>
<path fill-rule="evenodd" clip-rule="evenodd" d="M187.98 23.201H188.831V29.7974H187.98V28.544C187.471 29.3073 186.682 29.853 185.778 29.853C184.009 29.853 182.729 28.4401 182.729 26.4995C182.729 24.5578 184.009 23.1448 185.778 23.1448C186.682 23.1448 187.471 23.6917 187.98 24.4538V23.2004V23.201ZM187.98 26.5001C187.98 25.0569 187.067 24.0114 185.814 24.0114C184.56 24.0114 183.65 25.0569 183.65 26.5001C183.65 27.9421 184.56 28.9876 185.814 28.9876C187.067 28.9876 187.98 27.9421 187.98 26.5001Z" fill="black"/>
<path fill-rule="evenodd" clip-rule="evenodd" d="M195.051 25.1331C195.051 26.2251 194.349 27.0634 193.088 27.0634H191.281V29.7962H190.405V23.201H193.087C194.348 23.201 195.05 24.0392 195.05 25.1331H195.051ZM193.061 26.1871C193.763 26.1871 194.13 25.8202 194.13 25.1331C194.13 24.4447 193.763 24.0876 193.061 24.0876H191.281V26.1877H193.061V26.1871Z" fill="black"/>
<path fill-rule="evenodd" clip-rule="evenodd" d="M201.096 29.7974H200.028L198.108 27.1027L196.196 29.7974H195.135L197.563 26.4433L195.242 23.201H196.32L198.124 25.7278L199.913 23.201H200.983L198.668 26.395L201.096 29.7974Z" fill="black"/>
<path fill-rule="evenodd" clip-rule="evenodd" d="M201.971 29.7974V23.201H202.848V28.5066L206.328 23.201H207.405V29.7974H206.529V24.3517L202.935 29.7974H201.971Z" fill="black"/>
<path fill-rule="evenodd" clip-rule="evenodd" d="M213.582 24.1063H211.391V29.7974H210.514V24.1063H208.324V23.201H213.582V24.1063Z" fill="black"/>
<path fill-rule="evenodd" clip-rule="evenodd" d="M219.987 26.9431H214.754C214.929 28.1379 215.815 29.0051 216.947 29.0051C217.848 29.0051 218.507 28.4975 218.884 27.7342H219.805C219.375 29.0432 218.219 29.8899 216.947 29.8899C215.193 29.8899 213.843 28.4117 213.843 26.4983C213.843 24.5868 215.149 23.1061 216.938 23.1061C218.438 23.1061 220.128 24.2362 219.987 26.9431H219.987ZM214.747 26.0565H219.077C218.989 24.8309 217.937 23.9921 216.912 23.9921C215.709 23.9921 214.904 24.8581 214.747 26.0565Z" fill="black"/>
<path fill-rule="evenodd" clip-rule="evenodd" d="M225.323 29.7974L222.948 26.6784L222.054 27.5734V29.7974H221.178V23.201H222.054V26.4784L225.305 23.201H226.384L223.58 26.0263L226.472 29.7974H225.323Z" fill="black"/>
<path fill-rule="evenodd" clip-rule="evenodd" d="M232.124 24.1063H229.932V29.7974H229.055V24.1063H226.865V23.201H232.124V24.1063Z" fill="black"/>
<path fill-rule="evenodd" clip-rule="evenodd" d="M237.179 23.201H238.162L235.707 28.7138C235.374 29.4391 234.935 29.8252 234.148 29.8252C233.911 29.8252 233.42 29.8065 233.043 29.7974V28.8921H234.086C234.524 28.8921 234.664 28.8075 234.892 28.3367L232.341 23.201H233.349L235.392 27.3293L237.18 23.201H237.179Z" fill="black"/>
<path fill-rule="evenodd" clip-rule="evenodd" d="M243.682 25.1331C243.682 26.2251 242.98 27.0634 241.719 27.0634H239.913V29.7962H239.037V23.201H241.719C242.979 23.201 243.682 24.0392 243.682 25.1331ZM241.692 26.1871C242.393 26.1871 242.76 25.8202 242.76 25.1331C242.76 24.4447 242.393 24.0876 241.692 24.0876H239.913V26.1877H241.692V26.1871Z" fill="black"/>
<path fill-rule="evenodd" clip-rule="evenodd" d="M247.414 25.9345C248.675 25.9345 249.376 26.7721 249.376 27.8659C249.376 28.9598 248.675 29.798 247.414 29.798H244.732V23.2016H245.608V25.9351H247.415L247.414 25.9345ZM247.387 28.9115C248.089 28.9115 248.456 28.5446 248.456 27.8557C248.456 27.1679 248.089 26.8102 247.387 26.8102H245.608V28.9115H247.387ZM250.341 23.201H251.218V29.7974H250.341V23.201Z" fill="black"/>
<path fill-rule="evenodd" clip-rule="evenodd" d="M276.774 22.8934C277.316 22.8934 277.844 23.0427 278.361 23.343C278.877 23.6404 279.279 24.0694 279.568 24.6248C279.855 25.1814 280 25.7628 280 26.3654C280 26.9643 279.857 27.5402 279.574 28.0908C279.29 28.6444 278.892 29.0716 278.38 29.3768C277.868 29.6832 277.332 29.8355 276.774 29.8355C276.214 29.8355 275.678 29.6832 275.165 29.3768C274.653 29.0716 274.254 28.6444 273.97 28.0908C273.685 27.5402 273.541 26.9643 273.541 26.3654C273.541 25.7628 273.686 25.1814 273.976 24.6248C274.267 24.0688 274.669 23.6404 275.185 23.343C275.702 23.0427 276.231 22.8934 276.774 22.8934ZM276.774 23.4681C276.319 23.4681 275.877 23.5932 275.448 23.8428C275.018 24.0924 274.683 24.4502 274.44 24.9149C274.197 25.3809 274.077 25.8631 274.077 26.366C274.077 26.867 274.196 27.3456 274.434 27.8037C274.672 28.2618 275.005 28.6202 275.434 28.8758C275.861 29.1315 276.309 29.2608 276.774 29.2608C277.237 29.2608 277.685 29.1315 278.113 28.8758C278.541 28.6202 278.873 28.2618 279.11 27.8037C279.347 27.3456 279.466 26.867 279.466 26.366C279.466 25.8631 279.344 25.3809 279.103 24.9149C278.862 24.4502 278.526 24.0924 278.096 23.8428C277.664 23.5932 277.224 23.4681 276.774 23.4681H276.774ZM277.809 26.925L278.335 27.093C278.249 27.4768 278.067 27.7844 277.789 28.0122C277.511 28.2413 277.174 28.3561 276.777 28.3561C276.275 28.3561 275.867 28.1814 275.553 27.8321C275.24 27.481 275.084 26.9981 275.084 26.3774C275.084 25.9725 275.156 25.6208 275.299 25.3235C275.441 25.0219 275.644 24.7995 275.908 24.646C276.172 24.4943 276.474 24.4182 276.812 24.4182C277.192 24.4182 277.508 24.5155 277.759 24.7119C278.01 24.9077 278.182 25.1754 278.274 25.5108L277.765 25.6528C277.679 25.4226 277.553 25.2437 277.386 25.1222C277.218 24.9983 277.023 24.9373 276.796 24.9373C276.468 24.9373 276.196 25.0624 275.983 25.3132C275.77 25.5652 275.662 25.926 275.662 26.3944C275.662 26.8627 275.763 27.2169 275.965 27.4574C276.166 27.6979 276.427 27.8194 276.746 27.8194C277.003 27.8194 277.229 27.7384 277.424 27.5765C277.619 27.4169 277.747 27.1994 277.809 26.9244L277.809 26.925Z" fill="black"/>
<path fill-rule="evenodd" clip-rule="evenodd" d="M20.929 21.3342C20.929 26.0003 17.7897 29.5823 12.169 29.5823H0V0.416489H12.1314C17.5188 0.416489 20.5411 3.87517 20.5411 8.33465C20.5411 10.9992 19.4948 13.2921 17.0921 14.7069C19.6888 16.1664 20.929 18.4992 20.929 21.3336V21.3342ZM3.87513 13.167H11.9368C15.0373 13.167 16.6266 11.4996 16.6266 8.54134C16.6266 5.70815 15.0373 4.24986 11.9368 4.24986H3.87513V13.167ZM11.9756 25.7495C15.1924 25.7495 16.8593 24.1238 16.8593 21.1655C16.8593 18.2907 15.1924 16.7907 11.9756 16.7907H3.87513V25.7495H11.9756Z" fill="black"/>
<path fill-rule="evenodd" clip-rule="evenodd" d="M25.3864 17.667V0.418304H29.2615V17.667C29.2615 22.4165 32.6734 26.0003 37.208 26.0003C41.7425 26.0003 45.1528 22.4165 45.1528 17.667V0.418304H49.0273V17.667C49.0273 24.7088 43.9508 30.0005 37.2074 30.0005C30.4629 30.0005 25.3853 24.7094 25.3853 17.667H25.3864Z" fill="black"/>
<path fill-rule="evenodd" clip-rule="evenodd" d="M73.3697 29.5823L64.5726 17.4996H59.495V29.5823H55.6182V0.416489H67.478C73.0599 0.416489 76.1609 4.12416 76.1609 8.95833C76.1609 13.2498 73.7188 16.6662 69.2224 17.3739L78.2528 29.5823H73.3697ZM59.495 4.20816V13.7085H67.2469C70.3474 13.7085 72.0913 11.9994 72.0913 8.95894C72.0913 5.91726 70.3474 4.20816 67.2469 4.20816H59.495Z" fill="black"/>
<path fill-rule="evenodd" clip-rule="evenodd" d="M79.6108 15.0006C79.6108 6.54094 85.7729 0.001297 93.7571 0.001297C101.741 0.001297 107.903 6.54034 107.903 15.0006C107.903 23.4566 101.741 29.9987 93.7571 29.9987C85.7729 29.9987 79.6108 23.4566 79.6108 15.0006ZM103.834 15.0006C103.834 8.79032 99.4542 4.00026 93.7571 4.00026C88.0593 4.00026 83.6799 8.79032 83.6799 15.0006C83.6799 21.2072 88.0588 25.9997 93.7571 25.9997C99.4542 25.9997 103.834 21.2072 103.834 15.0006Z" fill="black"/>
<path fill-rule="evenodd" clip-rule="evenodd" d="M132.516 21.6672C132.516 26.8748 128.175 29.9993 122.051 29.9993C115.928 29.9993 111.586 26.8748 111.586 21.6672C111.586 18.7506 113.059 16.3338 115.85 14.9583C113.486 13.4595 112.323 11.001 112.285 8.25004C112.207 3.29197 116.082 0.00190735 122.051 0.00190735C128.02 0.00190735 131.895 3.29197 131.817 8.25004C131.78 11.001 130.616 13.4589 128.253 14.9583C131.043 16.3338 132.515 18.7506 132.515 21.6672H132.516ZM128.718 21.7089C128.718 18.5421 126.199 16.6251 122.051 16.6251C117.904 16.6251 115.385 18.5415 115.385 21.7089C115.385 24.6254 117.903 26.4155 122.051 26.4155C126.198 26.4155 128.718 24.6254 128.718 21.7089ZM116.043 8.45914C116.043 11.6259 118.33 13.5429 122.052 13.5429C125.773 13.5429 128.06 11.6265 128.06 8.45914C128.06 5.33467 125.773 3.45998 122.052 3.45998C118.33 3.45998 116.043 5.33467 116.043 8.45914Z" fill="black"/>
<path fill-rule="evenodd" clip-rule="evenodd" d="M140.849 25.6655H155.888V29.5823H135.192L135.075 26.0414L146.973 16.083C149.881 13.6662 151.741 11.5407 151.741 8.62414C151.741 5.66707 149.299 3.79117 146.082 3.79117C143.176 3.79117 140.114 4.95817 139.455 9.58263H135.424C135.928 3.54158 140.655 -0.00050354 146.082 -0.00050354C152.206 -0.00050354 155.655 3.54158 155.655 8.20714C155.655 12.9567 152.749 15.8316 147.71 19.9992L140.85 25.6649L140.849 25.6655Z" fill="black"/>
</g>
<defs>
<clipPath id="clip0_2013_632">
<rect width="280" height="30" fill="white"/>
</clipPath>
</defs>
</svg>
