<svg width="374" height="115" viewBox="0 0 374 115" fill="none" xmlns="http://www.w3.org/2000/svg">
<g clip-path="url(#clip0_2013_239)">
<path fill-rule="evenodd" clip-rule="evenodd" d="M57.4946 5.52064C86.4295 5.52064 109.97 28.8384 109.97 57.5026C109.97 86.1651 86.4295 109.483 57.4946 109.483C28.5598 109.483 5.02045 86.1651 5.02045 57.5026C5.02045 28.8384 28.5598 5.52064 57.4946 5.52064ZM57.4946 0.547546C25.7416 0.547546 0.000976562 26.0467 0.000976562 57.5026C0.000976562 88.9568 25.7425 114.456 57.4946 114.456C89.2486 114.456 114.991 88.9568 114.991 57.5026C114.991 26.0458 89.2486 0.547546 57.4946 0.547546Z" fill="black"/>
<path fill-rule="evenodd" clip-rule="evenodd" d="M57.4946 59.987H112.478V55.0139H57.4946V59.987Z" fill="black"/>
<path fill-rule="evenodd" clip-rule="evenodd" d="M110.077 3.02842C111.404 3.02842 112.481 4.09564 112.481 5.40833C112.481 6.7219 111.404 7.79085 110.077 7.79085C108.752 7.79085 107.675 6.7219 107.675 5.40833C107.675 4.09564 108.751 3.02842 110.077 3.02842ZM110.077 0.541443C107.364 0.541443 105.164 2.72027 105.164 5.40833C105.164 8.0964 107.364 10.277 110.077 10.277C112.791 10.277 114.99 8.09727 114.99 5.40833C114.99 2.72027 112.791 0.541443 110.077 0.541443Z" fill="black"/>
<path fill-rule="evenodd" clip-rule="evenodd" d="M163.624 85.1301H162.419V78.1271L159.151 85.1301H157.921L154.675 78.1889V85.1301H153.47V76.6063H155.241L158.571 83.693L161.892 76.6063H163.624V85.1301Z" fill="black"/>
<path fill-rule="evenodd" clip-rule="evenodd" d="M172.65 76.6063H173.844V85.131H172.65V83.5101C171.937 84.4981 170.83 85.2032 169.565 85.2032C167.082 85.2032 165.289 83.3761 165.289 80.8691C165.289 78.3595 167.082 76.5341 169.565 76.5341C170.831 76.5341 171.938 77.2392 172.65 78.2254V76.6072V76.6063ZM172.65 80.8691C172.65 79.0054 171.37 77.6535 169.613 77.6535C167.855 77.6535 166.577 79.0054 166.577 80.8691C166.577 82.7319 167.855 84.0838 169.613 84.0838C171.37 84.0838 172.65 82.7319 172.65 80.8691Z" fill="black"/>
<path fill-rule="evenodd" clip-rule="evenodd" d="M179.916 76.4836C181.823 76.4836 183.422 77.6405 183.986 79.4075H182.624C182.133 78.3586 181.208 77.6535 179.917 77.6535C178.15 77.6535 176.797 79.0541 176.797 80.8691C176.797 82.6823 178.149 84.0838 179.917 84.0838C181.208 84.0838 182.133 83.377 182.624 82.3289H183.986C183.422 84.0969 181.823 85.2537 179.916 85.2537C177.421 85.2537 175.504 83.3421 175.504 80.87C175.504 78.396 177.422 76.4853 179.916 76.4853V76.4836Z" fill="black"/>
<path fill-rule="evenodd" clip-rule="evenodd" d="M191.612 77.7745H188.539V85.1292H187.309V77.7745H184.235V76.6046H191.612V77.7745Z" fill="black"/>
<path fill-rule="evenodd" clip-rule="evenodd" d="M200.6 81.4393H193.26C193.507 82.987 194.748 84.1073 196.334 84.1073C197.6 84.1073 198.522 83.4483 199.051 82.4638H200.342C199.74 84.1552 198.117 85.252 196.335 85.252C193.877 85.252 191.984 83.3404 191.984 80.8682C191.984 78.3943 193.816 76.4836 196.324 76.4836C198.425 76.4836 200.798 77.9443 200.601 81.4393H200.6ZM193.247 80.2946H199.321C199.198 78.712 197.724 77.6274 196.286 77.6274C194.6 77.6274 193.469 78.7477 193.247 80.2946Z" fill="black"/>
<path fill-rule="evenodd" clip-rule="evenodd" d="M208.79 79.102C208.79 80.5157 207.806 81.5994 206.036 81.5994H203.503V85.1301H202.274V76.6072H206.036C207.806 76.6072 208.79 77.6892 208.79 79.102ZM206 80.466C206.982 80.466 207.499 79.9916 207.499 79.102C207.499 78.215 206.982 77.7501 206 77.7501H203.503V80.466H206Z" fill="black"/>
<path fill-rule="evenodd" clip-rule="evenodd" d="M214.127 76.4836C216.033 76.4836 217.63 77.6405 218.195 79.4075H216.831C216.341 78.3586 215.417 77.6535 214.127 77.6535C212.357 77.6535 211.004 79.0541 211.004 80.8691C211.004 82.6823 212.357 84.0838 214.127 84.0838C215.417 84.0838 216.341 83.377 216.831 82.3289H218.195C217.63 84.0969 216.033 85.2537 214.127 85.2537C211.632 85.2537 209.713 83.3421 209.713 80.87C209.713 78.396 211.632 76.4853 214.127 76.4853V76.4836Z" fill="black"/>
<path fill-rule="evenodd" clip-rule="evenodd" d="M225.548 85.1301L222.217 81.0989L220.964 82.2558V85.1301H219.735V76.6063H220.964V80.843L225.523 76.6063H227.038L223.104 80.258L227.159 85.1301H225.548Z" fill="black"/>
<path fill-rule="evenodd" clip-rule="evenodd" d="M234.586 76.6063H235.778V85.131H234.586V83.5101C233.874 84.4981 232.767 85.2032 231.5 85.2032C229.017 85.2032 227.223 83.3761 227.223 80.8691C227.223 78.3595 229.017 76.5341 231.5 76.5341C232.767 76.5341 233.874 77.2392 234.586 78.2254V76.6072V76.6063ZM234.586 80.8691C234.586 79.0054 233.307 77.6535 231.549 77.6535C229.791 77.6535 228.512 79.0054 228.512 80.8691C228.512 82.7319 229.791 84.0838 231.549 84.0838C233.307 84.0838 234.586 82.7319 234.586 80.8691Z" fill="black"/>
<path fill-rule="evenodd" clip-rule="evenodd" d="M244.251 85.1301H243.022V81.5986H241.363L238.573 85.1301H237.074L239.937 81.562C238.509 81.3557 237.737 80.3564 237.737 79.102C237.737 77.6901 238.72 76.6063 240.49 76.6063H244.251V85.1301H244.251ZM243.022 80.4913V77.7145H240.564C239.578 77.7145 239.028 78.2132 239.028 79.102C239.028 79.9916 239.579 80.4913 240.564 80.4913H243.022Z" fill="black"/>
<path fill-rule="evenodd" clip-rule="evenodd" d="M153.47 99.7464V91.2217H154.7V98.0777L159.581 91.2217H161.093V99.7464H159.862V92.7068L154.823 99.7464H153.47Z" fill="black"/>
<path fill-rule="evenodd" clip-rule="evenodd" d="M169.455 91.2217H170.683V99.7464H169.455V96.0669H164.537V99.7464H163.307V91.2217H164.537V94.8987H169.455V91.2217Z" fill="black"/>
<path fill-rule="evenodd" clip-rule="evenodd" d="M179.352 92.3908H176.279V99.7455H175.05V92.3908H171.977V91.2217H179.352V92.3908Z" fill="black"/>
<path fill-rule="evenodd" clip-rule="evenodd" d="M188.34 96.0556H181.001C181.246 97.6033 182.489 98.7245 184.075 98.7245C185.341 98.7245 186.265 98.0664 186.792 97.081H188.081C187.482 98.7724 185.858 99.8692 184.075 99.8692C181.617 99.8692 179.724 97.9585 179.724 95.4854C179.724 93.0115 181.557 91.1008 184.063 91.1008C186.165 91.1008 188.536 92.5632 188.341 96.0564L188.34 96.0556ZM180.988 94.9109H187.062C186.939 93.3283 185.466 92.2446 184.028 92.2446C182.34 92.2446 181.21 93.3649 180.988 94.9109Z" fill="black"/>
<path fill-rule="evenodd" clip-rule="evenodd" d="M195.793 92.3908H191.244V99.7455H190.016V91.2217H195.793V92.3908Z" fill="black"/>
<path fill-rule="evenodd" clip-rule="evenodd" d="M203.599 93.7174C203.599 95.1311 202.616 96.2131 200.846 96.2131H198.312V99.7447H197.083V91.2209H200.846C202.616 91.2209 203.599 92.3038 203.599 93.7166V93.7174ZM200.809 95.0815C201.791 95.0815 202.308 94.6053 202.308 93.7174C202.308 92.8287 201.791 92.3656 200.809 92.3656H198.312V95.0815H200.809Z" fill="black"/>
<path fill-rule="evenodd" clip-rule="evenodd" d="M205.077 99.7464V91.2217H206.307V98.0777L211.188 91.2217H212.7V99.7464H211.469V92.7068L206.43 99.7464H205.077Z" fill="black"/>
<path fill-rule="evenodd" clip-rule="evenodd" d="M221.429 93.7174C221.429 95.1311 220.445 96.2131 218.675 96.2131H216.142V99.7447H214.913V91.2209H218.675C220.445 91.2209 221.429 92.3038 221.429 93.7166V93.7174ZM218.639 95.0815C219.621 95.0815 220.138 94.6053 220.138 93.7174C220.138 92.8287 219.621 92.3656 218.639 92.3656H216.142V95.0815H218.639Z" fill="black"/>
<path fill-rule="evenodd" clip-rule="evenodd" d="M222.353 95.4846C222.353 93.0106 224.307 91.0999 226.839 91.0999C229.372 91.0999 231.326 93.0115 231.326 95.4846C231.326 97.9576 229.372 99.8683 226.839 99.8683C224.307 99.8683 222.353 97.9576 222.353 95.4846ZM230.036 95.4846C230.036 93.6696 228.646 92.269 226.839 92.269C225.032 92.269 223.642 93.6696 223.642 95.4846C223.642 97.2978 225.033 98.6993 226.839 98.6993C228.646 98.6993 230.036 97.2978 230.036 95.4846Z" fill="black"/>
<path fill-rule="evenodd" clip-rule="evenodd" d="M239.627 97.3343C239.627 98.6992 238.632 99.7464 236.849 99.7464H232.989V91.2217H236.836C238.546 91.2217 239.504 92.2315 239.504 93.5338C239.504 94.3137 239.171 94.9831 238.409 95.3975C239.233 95.824 239.627 96.5056 239.627 97.3334L239.627 97.3343ZM234.219 94.9483H236.777C237.759 94.9483 238.263 94.4626 238.263 93.5964C238.263 92.7686 237.759 92.3421 236.777 92.3421H234.219V94.9483ZM236.789 98.6252C237.807 98.6252 238.338 98.1508 238.338 97.2847C238.338 96.4447 237.807 96.0086 236.789 96.0086H234.219V98.6252H236.789Z" fill="black"/>
<path fill-rule="evenodd" clip-rule="evenodd" d="M247.977 91.2218H249.168V99.7465H247.977V98.1256C247.265 99.1136 246.157 99.8205 244.892 99.8205C242.409 99.8205 240.614 97.9916 240.614 95.4837C240.614 92.9749 242.409 91.1495 244.892 91.1495C246.158 91.1495 247.266 91.8555 247.977 92.8426V91.2227V91.2218ZM247.977 95.4828C247.977 93.6191 246.698 92.2681 244.94 92.2681C243.183 92.2681 241.903 93.62 241.903 95.4828C241.903 97.3465 243.183 98.6975 244.94 98.6975C246.699 98.6975 247.977 97.3465 247.977 95.4828Z" fill="black"/>
<path fill-rule="evenodd" clip-rule="evenodd" d="M257.532 91.2217H258.758V99.7464H257.532V96.0669H252.613V99.7464H251.385V91.2217H252.613V94.8987H257.532V91.2217Z" fill="black"/>
<path fill-rule="evenodd" clip-rule="evenodd" d="M267.122 91.2217H268.35V99.7464H267.122V96.0669H262.202V99.7464H260.976V91.2217H262.202V94.8987H267.122V91.2217Z" fill="black"/>
<path fill-rule="evenodd" clip-rule="evenodd" d="M270.013 95.4846C270.013 93.0106 271.967 91.0999 274.499 91.0999C277.031 91.0999 278.987 93.0115 278.987 95.4846C278.987 97.9576 277.032 99.8683 274.499 99.8683C271.967 99.8683 270.013 97.9576 270.013 95.4846ZM277.696 95.4846C277.696 93.6696 276.306 92.269 274.499 92.269C272.692 92.269 271.302 93.6696 271.302 95.4846C271.302 97.2978 272.693 98.6993 274.499 98.6993C276.306 98.6993 277.696 97.2978 277.696 95.4846Z" fill="black"/>
<path fill-rule="evenodd" clip-rule="evenodd" d="M280.647 99.7465V91.2218H281.877V98.0777L286.757 91.2218H288.27V99.7465H287.04V92.7068L282 99.7465H280.647ZM282.197 88.9072H283.206C283.291 89.5165 283.757 89.8934 284.459 89.8934C285.161 89.8934 285.627 89.5165 285.713 88.9072H286.721C286.623 90.0162 285.749 90.7456 284.459 90.7456C283.168 90.7456 282.295 90.0162 282.197 88.9072Z" fill="black"/>
<path fill-rule="evenodd" clip-rule="evenodd" d="M160.281 105.839H161.473V114.364H160.281V112.744C159.569 113.731 158.461 114.437 157.196 114.437C154.713 114.437 152.918 112.61 152.918 110.102C152.918 107.592 154.713 105.768 157.196 105.768C158.462 105.768 159.569 106.473 160.281 107.459V105.84V105.839ZM160.281 110.102C160.281 108.238 159.002 106.887 157.245 106.887C155.487 106.887 154.208 108.237 154.208 110.102C154.208 111.965 155.487 113.316 157.245 113.316C159.002 113.316 160.281 111.965 160.281 110.102Z" fill="black"/>
<path fill-rule="evenodd" clip-rule="evenodd" d="M170.203 108.335C170.203 109.748 169.219 110.832 167.449 110.832H164.917V114.363H163.688V105.841H167.449C169.219 105.841 170.203 106.922 170.203 108.335ZM167.413 109.7C168.395 109.7 168.913 109.224 168.913 108.335C168.913 107.448 168.395 106.983 167.413 106.983H164.918V109.699H167.413V109.7Z" fill="black"/>
<path fill-rule="evenodd" clip-rule="evenodd" d="M178.687 114.364H177.188L174.496 110.881L171.816 114.364H170.328L173.734 110.029L170.476 105.839H171.988L174.519 109.102L177.03 105.839H178.529L175.282 109.968L178.687 114.364Z" fill="black"/>
<path fill-rule="evenodd" clip-rule="evenodd" d="M179.919 114.364V105.839H181.147V112.695L186.03 105.839H187.543V114.364H186.31V107.324L181.272 114.364H179.919Z" fill="black"/>
<path fill-rule="evenodd" clip-rule="evenodd" d="M196.21 107.008H193.136V114.363H191.907V107.008H188.833V105.839H196.21V107.008Z" fill="black"/>
<path fill-rule="evenodd" clip-rule="evenodd" d="M205.198 110.673H197.859C198.104 112.219 199.347 113.341 200.932 113.341C202.198 113.341 203.12 112.683 203.649 111.697H204.938C204.336 113.39 202.716 114.486 200.932 114.486C198.474 114.486 196.581 112.575 196.581 110.101C196.581 107.628 198.412 105.716 200.92 105.716C203.021 105.716 205.393 107.179 205.197 110.673H205.198ZM197.846 109.527H203.92C203.797 107.945 202.32 106.861 200.884 106.861C199.199 106.861 198.068 107.981 197.846 109.527H197.846Z" fill="black"/>
<path fill-rule="evenodd" clip-rule="evenodd" d="M212.687 114.364L209.357 110.332L208.102 111.489V114.364H206.872V105.839H208.102V110.077L212.662 105.839H214.177L210.242 109.493L214.298 114.364H212.687Z" fill="black"/>
<path fill-rule="evenodd" clip-rule="evenodd" d="M222.228 107.008H219.155V114.363H217.925V107.008H214.853V105.839H222.228V107.008Z" fill="black"/>
<path fill-rule="evenodd" clip-rule="evenodd" d="M229.322 105.839H230.7L227.258 112.962C226.791 113.901 226.176 114.399 225.07 114.399C224.736 114.399 224.049 114.375 223.52 114.364V113.195H224.983C225.598 113.195 225.793 113.086 226.115 112.477L222.537 105.839H223.949L226.815 111.173L229.321 105.839H229.322Z" fill="black"/>
<path fill-rule="evenodd" clip-rule="evenodd" d="M238.448 108.335C238.448 109.748 237.462 110.832 235.693 110.832H233.161V114.363H231.932V105.841H235.692C237.462 105.841 238.447 106.922 238.447 108.335H238.448ZM235.658 109.7C236.64 109.7 237.155 109.224 237.155 108.335C237.155 107.448 236.64 106.983 235.658 106.983H233.161V109.699H235.658V109.7Z" fill="black"/>
<path fill-rule="evenodd" clip-rule="evenodd" d="M243.686 109.371C245.456 109.371 246.439 110.454 246.439 111.867C246.439 113.28 245.456 114.363 243.686 114.363H239.923V105.838H241.153V109.37H243.686V109.371ZM243.649 113.218C244.632 113.218 245.148 112.744 245.148 111.854C245.148 110.967 244.632 110.504 243.649 110.504H241.153V113.218H243.649ZM247.792 105.838H249.021V114.363H247.792V105.838Z" fill="black"/>
<path fill-rule="evenodd" clip-rule="evenodd" d="M368.281 105.595C369.041 105.595 369.783 105.789 370.508 106.177C371.23 106.562 371.796 107.116 372.201 107.834C372.603 108.555 372.806 109.306 372.806 110.086C372.806 110.859 372.608 111.604 372.21 112.317C371.811 113.032 371.254 113.585 370.534 113.98C369.815 114.376 369.063 114.573 368.281 114.573C367.495 114.573 366.743 114.376 366.024 113.98C365.304 113.586 364.745 113.033 364.345 112.317C363.946 111.604 363.745 110.859 363.745 110.086C363.745 109.306 363.949 108.555 364.354 107.834C364.762 107.116 365.327 106.562 366.051 106.177C366.777 105.789 367.519 105.595 368.282 105.595H368.281ZM368.281 106.339C367.644 106.339 367.022 106.501 366.42 106.824C365.818 107.146 365.346 107.609 365.005 108.209C364.665 108.81 364.495 109.436 364.495 110.085C364.495 110.733 364.664 111.352 364.997 111.945C365.33 112.537 365.798 113.001 366.399 113.33C367 113.661 367.627 113.828 368.281 113.828C368.931 113.828 369.56 113.661 370.16 113.33C370.761 113.001 371.227 112.537 371.559 111.945C371.892 111.352 372.059 110.733 372.059 110.085C372.059 109.436 371.888 108.81 371.55 108.209C371.211 107.609 370.74 107.146 370.136 106.824C369.53 106.501 368.912 106.339 368.282 106.339H368.281ZM369.733 110.809L370.471 111.028C370.35 111.523 370.095 111.921 369.707 112.215C369.315 112.512 368.841 112.66 368.286 112.66C367.583 112.66 367.011 112.435 366.57 111.981C366.13 111.529 365.909 110.903 365.909 110.102C365.909 109.579 366.009 109.123 366.211 108.738C366.41 108.35 366.696 108.06 367.065 107.864C367.435 107.666 367.861 107.569 368.336 107.569C368.869 107.569 369.312 107.695 369.664 107.949C370.016 108.202 370.256 108.548 370.385 108.982L369.673 109.165C369.551 108.867 369.376 108.638 369.141 108.478C368.904 108.318 368.631 108.24 368.312 108.24C367.852 108.24 367.47 108.402 367.171 108.726C366.87 109.051 366.722 109.519 366.722 110.124C366.722 110.73 366.863 111.189 367.145 111.501C367.428 111.811 367.795 111.967 368.241 111.967C368.603 111.967 368.92 111.865 369.194 111.655C369.465 111.448 369.646 111.166 369.734 110.81L369.733 110.809Z" fill="black"/>
<path fill-rule="evenodd" clip-rule="evenodd" d="M182.85 27.7703C182.85 33.8454 178.415 38.5103 170.475 38.5103H153.28V0.541443H170.42C178.031 0.541443 182.302 5.0436 182.302 10.8471C182.302 14.3178 180.822 17.3027 177.429 19.1464C181.096 21.0449 182.849 24.0811 182.849 27.7703H182.85ZM158.757 17.1399H170.146C174.526 17.1399 176.77 14.9689 176.77 11.1179C176.77 7.43047 174.526 5.53281 170.146 5.53281H158.757V17.1399ZM170.201 33.519C174.745 33.519 177.098 31.4045 177.098 27.5535C177.098 23.8104 174.745 21.8579 170.201 21.8579H158.757V33.519H170.201Z" fill="black"/>
<path fill-rule="evenodd" clip-rule="evenodd" d="M189.147 22.9974V0.541443H194.622V22.9974C194.622 29.1813 199.44 33.8445 205.847 33.8445C212.252 33.8445 217.072 29.1822 217.072 22.9974V0.541443H222.548V22.9974C222.548 32.1627 215.375 39.0518 205.847 39.0518C196.319 39.0518 189.146 32.1627 189.146 22.9974H189.147Z" fill="black"/>
<path fill-rule="evenodd" clip-rule="evenodd" d="M256.936 38.5103L244.505 22.7806H237.333V38.5103H231.857V0.541443H248.613C256.495 0.541443 260.878 5.36829 260.878 11.661C260.878 17.2478 257.427 21.696 251.078 22.617L263.834 38.5103H256.936ZM237.332 5.47797V17.8458H248.284C252.664 17.8458 255.129 15.6218 255.129 11.6619C255.129 7.70207 252.664 5.47884 248.284 5.47884H237.332V5.47797Z" fill="black"/>
<path fill-rule="evenodd" clip-rule="evenodd" d="M265.752 19.5259C265.752 8.51597 274.458 0 285.738 0C297.016 0 305.723 8.51597 305.723 19.5259C305.723 30.5367 297.016 39.0526 285.738 39.0526C274.458 39.0526 265.752 30.5367 265.752 19.5259ZM299.973 19.5259C299.973 11.4443 293.786 5.20638 285.738 5.20638C277.689 5.20638 271.502 11.4443 271.502 19.5259C271.502 27.6075 277.689 33.8454 285.738 33.8454C293.786 33.8454 299.973 27.6075 299.973 19.5259Z" fill="black"/>
<path fill-rule="evenodd" clip-rule="evenodd" d="M340.495 28.2046C340.495 34.984 334.361 39.0518 325.711 39.0518C317.059 39.0518 310.927 34.984 310.927 28.2046C310.927 24.4076 313.009 21.2608 316.951 19.4719C313.61 17.5194 311.967 14.3186 311.913 10.7392C311.805 4.28453 317.278 0 325.712 0C334.142 0 339.62 4.28453 339.511 10.7392C339.456 14.3195 337.811 17.5194 334.475 19.4719C338.415 21.2608 340.497 24.4076 340.497 28.2046H340.495ZM335.127 28.2586C335.127 24.1369 331.568 21.6412 325.711 21.6412C319.852 21.6412 316.293 24.1377 316.293 28.2586C316.293 32.0548 319.852 34.3877 325.711 34.3877C331.568 34.3877 335.127 32.0548 335.127 28.2586ZM317.224 11.0108C317.224 15.1325 320.454 17.6282 325.711 17.6282C330.968 17.6282 334.198 15.1325 334.198 11.0108C334.198 6.943 330.968 4.50129 325.711 4.50129C320.454 4.50129 317.224 6.94213 317.224 11.0108Z" fill="black"/>
<path fill-rule="evenodd" clip-rule="evenodd" d="M352.267 33.4119H373.512V38.5095H344.272L344.109 33.9002L360.92 20.9352C365.026 17.7901 367.653 15.0246 367.653 11.2275C367.653 7.37563 364.205 4.93566 359.659 4.93566C355.553 4.93566 351.227 6.45466 350.296 12.4758H344.601C345.313 4.61097 351.994 0 359.659 0C368.311 0 373.184 4.61097 373.184 10.6844C373.184 16.8683 369.078 20.6096 361.958 26.0354L352.267 33.411V33.4119Z" fill="black"/>
</g>
<defs>
<clipPath id="clip0_2013_239">
<rect width="374" height="115" fill="white"/>
</clipPath>
</defs>
</svg>
