<svg width="379" height="198" viewBox="0 0 379 198" fill="none" xmlns="http://www.w3.org/2000/svg">
<path fill-rule="evenodd" clip-rule="evenodd" d="M18.9987 146.572H16.9355V134.514L11.343 146.572H9.23926L3.68439 134.621V146.572H1.62274V131.896H4.6528L10.352 144.097L16.0348 131.896H18.9987V146.572Z" fill="black"/>
<path fill-rule="evenodd" clip-rule="evenodd" d="M34.4438 131.896H36.4874V146.573H34.4438V143.783C33.2242 145.484 31.3295 146.698 29.1641 146.698C24.916 146.698 21.8468 143.552 21.8468 139.235C21.8468 134.915 24.916 131.772 29.1641 131.772C31.331 131.772 33.2257 132.986 34.4438 134.684V131.898V131.896ZM34.4438 139.235C34.4438 136.027 32.2543 133.699 29.2468 133.699C26.2378 133.699 24.0513 136.027 24.0513 139.235C24.0513 142.443 26.2378 144.77 29.2468 144.77C32.2543 144.77 34.4438 142.443 34.4438 139.235Z" fill="black"/>
<path fill-rule="evenodd" clip-rule="evenodd" d="M46.8783 131.685C50.1415 131.685 52.8783 133.677 53.8422 136.719H51.5114C50.6723 134.913 49.0889 133.699 46.8798 133.699C43.8558 133.699 41.54 136.111 41.54 139.235C41.54 142.357 43.8543 144.77 46.8798 144.77C49.0889 144.77 50.6723 143.553 51.5114 141.749H53.8422C52.8783 144.793 50.1415 146.785 46.8783 146.785C42.6092 146.785 39.328 143.493 39.328 139.237C39.328 134.978 42.6107 131.688 46.8783 131.688V131.685Z" fill="black"/>
<path fill-rule="evenodd" clip-rule="evenodd" d="M66.8919 133.907H61.6332V146.57H59.5295V133.907H54.2693V131.893H66.8919V133.907Z" fill="black"/>
<path fill-rule="evenodd" clip-rule="evenodd" d="M82.2723 140.217H69.7129C70.1354 142.882 72.2587 144.811 74.973 144.811C77.1384 144.811 78.7174 143.676 79.6226 141.981H81.8317C80.8016 144.893 78.0241 146.782 74.9745 146.782C70.7685 146.782 67.5294 143.49 67.5294 139.234C67.5294 134.975 70.6633 131.685 74.955 131.685C78.5505 131.685 82.6121 134.2 82.2753 140.217H82.2723ZM69.6903 138.246H80.0843C79.8738 135.522 77.3505 133.654 74.8903 133.654C72.0046 133.654 70.0693 135.583 69.6903 138.246Z" fill="black"/>
<path fill-rule="evenodd" clip-rule="evenodd" d="M96.2873 136.193C96.2873 138.627 94.6031 140.493 91.5745 140.493H87.2407V146.572H85.1369V131.898H91.5745C94.6031 131.898 96.2873 133.761 96.2873 136.193ZM91.5129 138.542C93.1941 138.542 94.0783 137.725 94.0783 136.193C94.0783 134.666 93.1941 133.865 91.5129 133.865H87.2407V138.542H91.5129Z" fill="black"/>
<path fill-rule="evenodd" clip-rule="evenodd" d="M105.42 131.685C108.681 131.685 111.415 133.677 112.382 136.719H110.048C109.209 134.913 107.627 133.699 105.42 133.699C102.391 133.699 100.077 136.111 100.077 139.235C100.077 142.357 102.391 144.77 105.42 144.77C107.629 144.77 109.209 143.553 110.048 141.749H112.382C111.415 144.793 108.681 146.785 105.42 146.785C101.15 146.785 97.8677 143.493 97.8677 139.237C97.8677 134.978 101.15 131.688 105.42 131.688V131.685Z" fill="black"/>
<path fill-rule="evenodd" clip-rule="evenodd" d="M124.964 146.572L119.265 139.631L117.12 141.623V146.572H115.017V131.896H117.12V139.191L124.922 131.896H127.514L120.782 138.183L127.722 146.572H124.964Z" fill="black"/>
<path fill-rule="evenodd" clip-rule="evenodd" d="M140.43 131.896H142.471V146.573H140.43V143.783C139.212 145.484 137.317 146.698 135.15 146.698C130.901 146.698 127.83 143.552 127.83 139.235C127.83 134.915 130.901 131.772 135.15 131.772C137.317 131.772 139.212 132.986 140.43 134.684V131.898V131.896ZM140.43 139.235C140.43 136.027 138.242 133.699 135.233 133.699C132.226 133.699 130.036 136.027 130.036 139.235C130.036 142.443 132.226 144.77 135.233 144.77C138.242 144.77 140.43 142.443 140.43 139.235Z" fill="black"/>
<path fill-rule="evenodd" clip-rule="evenodd" d="M156.97 146.572H154.866V140.491H152.027L147.253 146.572H144.687L149.587 140.428C147.143 140.073 145.823 138.353 145.823 136.193C145.823 133.762 147.504 131.896 150.534 131.896H156.968V146.572H156.97ZM154.866 138.585V133.804H150.66C148.973 133.804 148.032 134.663 148.032 136.193C148.032 137.725 148.974 138.585 150.66 138.585H154.866Z" fill="black"/>
<path fill-rule="evenodd" clip-rule="evenodd" d="M1.62274 171.737V157.06H3.7265V168.864L12.0799 157.06H14.6663V171.737H12.5611V159.617L3.93701 171.737H1.62274Z" fill="black"/>
<path fill-rule="evenodd" clip-rule="evenodd" d="M28.9761 157.06H31.0768V171.737H28.9761V165.402H20.5595V171.737H18.4558V157.06H20.5595V163.391H28.9761V157.06Z" fill="black"/>
<path fill-rule="evenodd" clip-rule="evenodd" d="M45.9129 159.073H40.6543V171.736H38.5505V159.073H33.2919V157.06H45.9129V159.073Z" fill="black"/>
<path fill-rule="evenodd" clip-rule="evenodd" d="M61.2933 165.383H48.7339C49.1535 168.047 51.2798 169.978 53.9941 169.978C56.161 169.978 57.7415 168.845 58.6437 167.148H60.8497C59.8242 170.06 57.0452 171.949 53.9941 171.949C49.7881 171.949 46.549 168.659 46.549 164.401C46.549 160.142 49.6858 156.852 53.9746 156.852C57.57 156.852 61.6287 159.37 61.2948 165.384L61.2933 165.383ZM48.7114 163.412H59.1054C58.8948 160.687 56.3745 158.821 53.9144 158.821C51.0257 158.821 49.0919 160.75 48.7114 163.412Z" fill="black"/>
<path fill-rule="evenodd" clip-rule="evenodd" d="M74.0467 159.073H66.2618V171.736H64.161V157.06H74.0467V159.073Z" fill="black"/>
<path fill-rule="evenodd" clip-rule="evenodd" d="M87.4046 161.357C87.4046 163.791 85.7219 165.654 82.6934 165.654H78.358V171.734H76.2543V157.059H82.6934C85.7219 157.059 87.4046 158.923 87.4046 161.356V161.357ZM82.6302 163.706C84.3114 163.706 85.1956 162.886 85.1956 161.357C85.1956 159.827 84.3099 159.029 82.6302 159.029H78.358V163.706H82.6302Z" fill="black"/>
<path fill-rule="evenodd" clip-rule="evenodd" d="M89.9339 171.737V157.06H92.0377V168.864L100.391 157.06H102.979V171.737H100.872V159.617L92.2482 171.737H89.9339Z" fill="black"/>
<path fill-rule="evenodd" clip-rule="evenodd" d="M117.916 161.357C117.916 163.791 116.232 165.654 113.203 165.654H108.869V171.734H106.765V157.059H113.203C116.232 157.059 117.916 158.923 117.916 161.356V161.357ZM113.141 163.706C114.823 163.706 115.707 162.886 115.707 161.357C115.707 159.827 114.823 159.029 113.141 159.029H108.869V163.706H113.141Z" fill="black"/>
<path fill-rule="evenodd" clip-rule="evenodd" d="M119.496 164.399C119.496 160.14 122.841 156.85 127.173 156.85C131.508 156.85 134.853 160.142 134.853 164.399C134.853 168.657 131.508 171.947 127.173 171.947C122.841 171.947 119.496 168.657 119.496 164.399ZM132.644 164.399C132.644 161.275 130.266 158.863 127.173 158.863C124.081 158.863 121.702 161.275 121.702 164.399C121.702 167.521 124.083 169.934 127.173 169.934C130.266 169.934 132.644 167.521 132.644 164.399Z" fill="black"/>
<path fill-rule="evenodd" clip-rule="evenodd" d="M149.057 167.584C149.057 169.934 147.353 171.737 144.302 171.737H137.698V157.06H144.281C147.206 157.06 148.847 158.799 148.847 161.041C148.847 162.384 148.277 163.536 146.973 164.25C148.382 164.984 149.056 166.157 149.056 167.583L149.057 167.584ZM139.802 163.476H144.179C145.86 163.476 146.722 162.64 146.722 161.149C146.722 159.723 145.86 158.989 144.179 158.989H139.802V163.476ZM144.2 169.807C145.943 169.807 146.851 168.99 146.851 167.499C146.851 166.053 145.943 165.302 144.2 165.302H139.802V169.807H144.2Z" fill="black"/>
<path fill-rule="evenodd" clip-rule="evenodd" d="M163.346 157.06H165.383V171.737H163.346V168.947C162.126 170.648 160.232 171.865 158.066 171.865C153.817 171.865 150.746 168.716 150.746 164.398C150.746 160.079 153.817 156.936 158.066 156.936C160.233 156.936 162.128 158.151 163.346 159.851V157.062V157.06ZM163.346 164.396C163.346 161.188 161.156 158.862 158.149 158.862C155.141 158.862 152.952 161.189 152.952 164.396C152.952 167.605 155.141 169.931 158.149 169.931C161.158 169.931 163.346 167.605 163.346 164.396Z" fill="black"/>
<path fill-rule="evenodd" clip-rule="evenodd" d="M179.696 157.06H181.794V171.737H179.696V165.402H171.28V171.737H169.177V157.06H171.28V163.391H179.696V157.06Z" fill="black"/>
<path fill-rule="evenodd" clip-rule="evenodd" d="M196.108 157.06H198.209V171.737H196.108V165.402H187.689V171.737H185.59V157.06H187.689V163.391H196.108V157.06Z" fill="black"/>
<path fill-rule="evenodd" clip-rule="evenodd" d="M201.054 164.399C201.054 160.14 204.399 156.85 208.731 156.85C213.065 156.85 216.411 160.142 216.411 164.399C216.411 168.657 213.066 171.947 208.731 171.947C204.399 171.947 201.054 168.657 201.054 164.399ZM214.202 164.399C214.202 161.275 211.824 158.863 208.731 158.863C205.639 158.863 203.26 161.275 203.26 164.399C203.26 167.521 205.641 169.934 208.731 169.934C211.824 169.934 214.202 167.521 214.202 164.399Z" fill="black"/>
<path fill-rule="evenodd" clip-rule="evenodd" d="M219.253 171.737V157.06H221.356V168.864L229.708 157.06H232.296V171.737H230.191V159.617L221.567 171.737H219.253ZM221.904 153.075H223.63C223.776 154.124 224.574 154.773 225.774 154.773C226.976 154.773 227.774 154.124 227.92 153.075H229.647C229.478 154.984 227.982 156.24 225.774 156.24C223.565 156.24 222.072 154.984 221.904 153.075Z" fill="black"/>
<path fill-rule="evenodd" clip-rule="evenodd" d="M13.2768 182.227H15.3174V196.904H13.2768V194.115C12.0588 195.815 10.1625 197.03 7.99863 197.03C3.74901 197.03 0.678345 193.886 0.678345 189.567C0.678345 185.246 3.74901 182.104 7.99863 182.104C10.164 182.104 12.0588 183.318 13.2768 185.016V182.229V182.227ZM13.2768 189.567C13.2768 186.358 11.0889 184.032 8.08134 184.032C5.07383 184.032 2.88435 186.356 2.88435 189.567C2.88435 192.775 5.07383 195.101 8.08134 195.101C11.0889 195.101 13.2768 192.775 13.2768 189.567Z" fill="black"/>
<path fill-rule="evenodd" clip-rule="evenodd" d="M30.2573 186.524C30.2573 188.958 28.5731 190.824 25.5445 190.824H21.2107V196.903H19.1069V182.23H25.5445C28.5731 182.23 30.2573 184.092 30.2573 186.524ZM25.4828 188.874C27.1625 188.874 28.0483 188.056 28.0483 186.524C28.0483 184.997 27.1625 184.196 25.4828 184.196H21.2122V188.873H25.4828V188.874Z" fill="black"/>
<path fill-rule="evenodd" clip-rule="evenodd" d="M44.7745 196.904H42.2091L37.6031 190.908L33.0166 196.904H30.4708L36.2994 189.441L30.7234 182.227H33.3114L37.6422 187.844L41.9385 182.227H44.5039L38.9475 189.336L44.7745 196.904Z" fill="black"/>
<path fill-rule="evenodd" clip-rule="evenodd" d="M46.8828 196.904V182.227H48.9851V194.031L57.34 182.227H59.9294V196.904H57.8197V184.784L49.1986 196.904H46.8828Z" fill="black"/>
<path fill-rule="evenodd" clip-rule="evenodd" d="M74.761 184.24H69.5009V196.903H67.3971V184.24H62.137V182.227H74.761V184.24Z" fill="black"/>
<path fill-rule="evenodd" clip-rule="evenodd" d="M90.1414 190.55H77.582C78.0016 193.211 80.1279 195.143 82.8407 195.143C85.0076 195.143 86.585 194.01 87.4903 192.314H89.6963C88.6662 195.229 85.8933 197.114 82.8407 197.114C78.6347 197.114 75.3956 193.824 75.3956 189.565C75.3956 185.307 78.5294 182.016 82.8211 182.016C86.4166 182.016 90.4753 184.534 90.1399 190.55H90.1414ZM77.5595 188.577H87.9535C87.7429 185.853 85.2166 183.987 82.7595 183.987C79.8753 183.987 77.9399 185.916 77.561 188.577H77.5595Z" fill="black"/>
<path fill-rule="evenodd" clip-rule="evenodd" d="M102.956 196.904L97.2572 189.964L95.1099 191.956V196.904H93.0046V182.227H95.1099V189.523L102.913 182.227H105.505L98.7715 188.519L105.713 196.904H102.956Z" fill="black"/>
<path fill-rule="evenodd" clip-rule="evenodd" d="M119.283 184.24H114.026V196.903H111.92V184.24H106.663V182.227H119.283V184.24Z" fill="black"/>
<path fill-rule="evenodd" clip-rule="evenodd" d="M131.423 182.227H133.781L127.89 194.491C127.092 196.107 126.039 196.966 124.146 196.966C123.574 196.966 122.4 196.924 121.495 196.904V194.892H123.997C125.05 194.892 125.384 194.704 125.934 193.657L119.812 182.227H122.229L127.132 191.411L131.421 182.227H131.423Z" fill="black"/>
<path fill-rule="evenodd" clip-rule="evenodd" d="M147.039 186.524C147.039 188.958 145.352 190.824 142.325 190.824H137.993V196.903H135.889V182.23H142.323C145.352 182.23 147.038 184.092 147.038 186.524H147.039ZM142.265 188.874C143.946 188.874 144.827 188.056 144.827 186.524C144.827 184.997 143.946 184.196 142.265 184.196H137.993V188.873H142.265V188.874Z" fill="black"/>
<path fill-rule="evenodd" clip-rule="evenodd" d="M156.003 188.308C159.032 188.308 160.714 190.173 160.714 192.606C160.714 195.038 159.032 196.903 156.003 196.903H149.564V182.226H151.668V188.306H156.003V188.308ZM155.94 194.932C157.621 194.932 158.505 194.115 158.505 192.583C158.505 191.056 157.621 190.259 155.94 190.259H151.668V194.932H155.94ZM163.029 182.226H165.132V196.903H163.029V182.226Z" fill="black"/>
<path fill-rule="evenodd" clip-rule="evenodd" d="M369.214 181.807C370.514 181.807 371.785 182.14 373.025 182.809C374.26 183.471 375.229 184.426 375.922 185.662C376.609 186.903 376.958 188.197 376.958 189.54C376.958 190.87 376.618 192.153 375.937 193.381C375.254 194.611 374.302 195.565 373.069 196.243C371.839 196.925 370.552 197.264 369.214 197.264C367.869 197.264 366.582 196.925 365.352 196.243C364.119 195.566 363.162 194.613 362.478 193.381C361.795 192.153 361.451 190.87 361.451 189.54C361.451 188.197 361.8 186.903 362.493 185.662C363.192 184.426 364.159 183.471 365.398 182.809C366.641 182.14 367.91 181.807 369.215 181.807H369.214ZM369.214 183.087C368.123 183.087 367.059 183.368 366.029 183.922C364.998 184.478 364.191 185.274 363.607 186.308C363.026 187.342 362.735 188.42 362.735 189.538C362.735 190.653 363.024 191.719 363.594 192.739C364.164 193.76 364.965 194.557 365.994 195.125C367.021 195.695 368.095 195.983 369.214 195.983C370.326 195.983 371.403 195.695 372.43 195.125C373.457 194.557 374.256 193.759 374.824 192.739C375.392 191.719 375.678 190.653 375.678 189.538C375.678 188.42 375.386 187.342 374.807 186.308C374.229 185.274 373.421 184.477 372.388 183.922C371.352 183.366 370.293 183.087 369.215 183.087H369.214ZM371.699 190.783L372.961 191.161C372.755 192.014 372.319 192.699 371.654 193.205C370.983 193.717 370.173 193.971 369.223 193.971C368.02 193.971 367.041 193.583 366.286 192.802C365.532 192.023 365.155 190.947 365.155 189.567C365.155 188.666 365.326 187.882 365.672 187.218C366.012 186.551 366.502 186.05 367.134 185.713C367.767 185.373 368.495 185.205 369.308 185.205C370.22 185.205 370.977 185.422 371.58 185.86C372.183 186.296 372.594 186.891 372.814 187.639L371.595 187.954C371.386 187.44 371.087 187.046 370.686 186.771C370.28 186.496 369.812 186.361 369.266 186.361C368.48 186.361 367.826 186.639 367.314 187.198C366.8 187.758 366.546 188.562 366.546 189.604C366.546 190.649 366.788 191.438 367.271 191.975C367.753 192.51 368.382 192.778 369.146 192.778C369.765 192.778 370.308 192.601 370.776 192.24C371.241 191.885 371.549 191.399 371.701 190.786L371.699 190.783Z" fill="black"/>
<path fill-rule="evenodd" clip-rule="evenodd" d="M51.8979 47.8131C51.8979 58.2729 44.3084 66.3047 30.7219 66.3047H1.29791V0.93222H30.6272C43.6528 0.93222 50.961 8.68376 50.961 18.6759C50.961 24.6514 48.4287 29.7907 42.6212 32.965C48.8964 36.2338 51.8964 41.4614 51.8964 47.8131H51.8979ZM10.6693 29.5104H30.1595C37.6543 29.5104 41.4949 25.7725 41.4949 19.142C41.4949 12.7933 37.6543 9.52606 30.1595 9.52606H10.6693V29.5104ZM30.2528 57.7109C38.0287 57.7109 42.0558 54.0704 42.0558 47.4399C42.0558 40.9953 38.0287 37.6336 30.2528 37.6336H10.6693V57.7109H30.2528Z" fill="black"/>
<path fill-rule="evenodd" clip-rule="evenodd" d="M62.6738 39.5955V0.93222H72.0422V39.5955C72.0422 50.2426 80.2873 58.2714 91.2512 58.2714C102.212 58.2714 110.46 50.2441 110.46 39.5955V0.93222H119.83V39.5955C119.83 55.3758 107.556 67.237 91.2512 67.237C74.9475 67.237 62.6723 55.3758 62.6723 39.5955H62.6738Z" fill="black"/>
<path fill-rule="evenodd" clip-rule="evenodd" d="M178.677 66.3047L157.405 39.2223H145.131V66.3047H135.761V0.93222H164.433C177.922 0.93222 185.423 9.24279 185.423 20.0773C185.423 29.6962 179.516 37.3549 168.651 38.9405L190.48 66.3047H178.677ZM145.129 9.43163V30.7259H163.871C171.365 30.7259 175.584 26.8966 175.584 20.0788C175.584 13.2609 171.365 9.43313 163.871 9.43313H145.129V9.43163Z" fill="black"/>
<path fill-rule="evenodd" clip-rule="evenodd" d="M193.762 33.6185C193.762 14.6623 208.66 0 227.962 0C247.263 0 262.162 14.6623 262.162 33.6185C262.162 52.5762 247.263 67.2385 227.962 67.2385C208.66 67.2385 193.762 52.5762 193.762 33.6185ZM252.323 33.6185C252.323 19.7041 241.735 8.96403 227.962 8.96403C214.189 8.96403 203.602 19.7041 203.602 33.6185C203.602 47.5329 214.189 58.2729 227.962 58.2729C241.735 58.2729 252.323 47.5329 252.323 33.6185Z" fill="black"/>
<path fill-rule="evenodd" clip-rule="evenodd" d="M321.666 48.561C321.666 60.2333 311.168 67.237 296.367 67.237C281.561 67.237 271.068 60.2333 271.068 48.561C271.068 42.0235 274.63 36.6055 281.376 33.5256C275.66 30.1639 272.848 24.653 272.755 18.4901C272.57 7.37685 281.935 0 296.368 0C310.794 0 320.168 7.37685 319.982 18.4901C319.887 24.6545 317.074 30.1639 311.364 33.5256C318.107 36.6055 321.669 42.0235 321.669 48.561H321.666ZM312.48 48.6539C312.48 41.5574 306.389 37.2604 296.367 37.2604C286.341 37.2604 280.251 41.5589 280.251 48.6539C280.251 55.19 286.341 59.2067 296.367 59.2067C306.389 59.2067 312.48 55.19 312.48 48.6539ZM281.843 18.9577C281.843 26.0543 287.371 30.3512 296.367 30.3512C305.362 30.3512 310.89 26.0543 310.89 18.9577C310.89 11.954 305.362 7.75004 296.367 7.75004C287.371 7.75004 281.843 11.9525 281.843 18.9577Z" fill="black"/>
<path fill-rule="evenodd" clip-rule="evenodd" d="M341.81 57.5265H378.165V66.3032H328.129L327.85 58.3673L356.616 36.045C363.644 30.63 368.14 25.8684 368.14 19.3309C368.14 12.6989 362.239 8.49792 354.459 8.49792C347.433 8.49792 340.03 11.1132 338.437 21.4801H328.692C329.91 7.93888 341.343 0 354.459 0C369.265 0 377.603 7.93888 377.603 18.3957C377.603 29.0428 370.577 35.4844 358.394 44.8261L341.81 57.5251V57.5265Z" fill="black"/>
</svg>
