<svg width="293" height="91" viewBox="0 0 293 91" fill="none" xmlns="http://www.w3.org/2000/svg">
<g clip-path="url(#clip0_278_863)">
<path fill-rule="evenodd" clip-rule="evenodd" d="M45.0428 4.3685C67.711 4.3685 86.153 22.8199 86.153 45.5021C86.153 68.1828 67.711 86.6342 45.0428 86.6342C22.3746 86.6342 3.93334 68.1828 3.93334 45.5021C3.93334 22.8199 22.3746 4.3685 45.0428 4.3685ZM45.0428 0.433273C20.1667 0.433273 0.000976562 20.6109 0.000976562 45.5021C0.000976562 70.3919 20.1674 90.5695 45.0428 90.5695C69.9196 90.5695 90.0867 70.3919 90.0867 45.5021C90.0867 20.6102 69.9196 0.433273 45.0428 0.433273Z" fill="white"/>
<path fill-rule="evenodd" clip-rule="evenodd" d="M45.1948 47.6118H86.1765V43.3882H45.1948V47.6118Z" fill="white"/>
<path fill-rule="evenodd" clip-rule="evenodd" d="M86.2368 2.3964C87.2763 2.3964 88.1196 3.2409 88.1196 4.27964C88.1196 5.31906 87.2763 6.16494 86.2368 6.16494C85.1986 6.16494 84.3546 5.31906 84.3546 4.27964C84.3546 3.2409 85.1979 2.3964 86.2368 2.3964ZM86.2368 0.428444C84.1115 0.428444 82.3877 2.15256 82.3877 4.27964C82.3877 6.40671 84.1115 8.1322 86.2368 8.1322C88.3627 8.1322 90.0858 6.4074 90.0858 4.27964C90.0858 2.15256 88.3627 0.428444 86.2368 0.428444Z" fill="white"/>
<path fill-rule="evenodd" clip-rule="evenodd" d="M128.187 67.3638H127.242V61.8223L124.682 67.3638H123.719L121.176 61.8712V67.3638H120.232V60.6189H121.619L124.228 66.2266L126.83 60.6189H128.187V67.3638Z" fill="white"/>
<path fill-rule="evenodd" clip-rule="evenodd" d="M135.258 60.6189H136.193V67.3645H135.258V66.0819C134.699 66.8637 133.832 67.4217 132.841 67.4217C130.896 67.4217 129.491 65.9759 129.491 63.9921C129.491 62.0062 130.896 60.5617 132.841 60.5617C133.833 60.5617 134.7 61.1197 135.258 61.9001V60.6196V60.6189ZM135.258 63.9921C135.258 62.5173 134.255 61.4476 132.879 61.4476C131.501 61.4476 130.5 62.5173 130.5 63.9921C130.5 65.4661 131.501 66.5359 132.879 66.5359C134.255 66.5359 135.258 65.4661 135.258 63.9921Z" fill="white"/>
<path fill-rule="evenodd" clip-rule="evenodd" d="M140.951 60.5218C142.445 60.5218 143.698 61.4372 144.139 62.8355H143.072C142.688 62.0055 141.963 61.4476 140.951 61.4476C139.567 61.4476 138.507 62.5559 138.507 63.9921C138.507 65.4269 139.566 66.5359 140.951 66.5359C141.963 66.5359 142.688 65.9765 143.072 65.1472H144.139C143.698 66.5462 142.445 67.4616 140.951 67.4616C138.996 67.4616 137.494 65.949 137.494 63.9927C137.494 62.0351 138.997 60.5232 140.951 60.5232V60.5218Z" fill="white"/>
<path fill-rule="evenodd" clip-rule="evenodd" d="M150.113 61.5433H147.706V67.3631H146.743V61.5433H144.334V60.6175H150.113V61.5433Z" fill="white"/>
<path fill-rule="evenodd" clip-rule="evenodd" d="M157.154 64.4432H151.404C151.598 65.668 152.57 66.5545 153.813 66.5545C154.804 66.5545 155.527 66.033 155.941 65.254H156.953C156.481 66.5923 155.209 67.4603 153.813 67.4603C151.888 67.4603 150.405 65.9476 150.405 63.9914C150.405 62.0337 151.84 60.5218 153.804 60.5218C155.45 60.5218 157.31 61.6776 157.156 64.4432H157.154ZM151.394 63.5374H156.153C156.056 62.2852 154.901 61.4269 153.775 61.4269C152.454 61.4269 151.568 62.3134 151.394 63.5374Z" fill="white"/>
<path fill-rule="evenodd" clip-rule="evenodd" d="M163.571 62.5938C163.571 63.7124 162.8 64.57 161.413 64.57H159.429V67.3638H158.466V60.6196H161.413C162.8 60.6196 163.571 61.4758 163.571 62.5938ZM161.385 63.6731C162.154 63.6731 162.559 63.2977 162.559 62.5938C162.559 61.8919 162.154 61.524 161.385 61.524H159.429V63.6731H161.385Z" fill="white"/>
<path fill-rule="evenodd" clip-rule="evenodd" d="M167.752 60.5218C169.245 60.5218 170.497 61.4372 170.939 62.8355H169.871C169.487 62.0055 168.762 61.4476 167.752 61.4476C166.365 61.4476 165.306 62.5559 165.306 63.9921C165.306 65.4269 166.365 66.5359 167.752 66.5359C168.763 66.5359 169.487 65.9765 169.871 65.1472H170.939C170.497 66.5462 169.245 67.4616 167.752 67.4616C165.797 67.4616 164.294 65.949 164.294 63.9927C164.294 62.0351 165.797 60.5232 167.752 60.5232V60.5218Z" fill="white"/>
<path fill-rule="evenodd" clip-rule="evenodd" d="M176.699 67.3638L174.09 64.1739L173.108 65.0893V67.3638H172.145V60.6189H173.108V63.9714L176.68 60.6189H177.867L174.785 63.5085L177.962 67.3638H176.699Z" fill="white"/>
<path fill-rule="evenodd" clip-rule="evenodd" d="M183.78 60.6189H184.714V67.3645H183.78V66.0819C183.222 66.8637 182.355 67.4217 181.363 67.4217C179.417 67.4217 178.011 65.9759 178.011 63.9921C178.011 62.0062 179.417 60.5617 181.363 60.5617C182.355 60.5617 183.222 61.1197 183.78 61.9001V60.6196V60.6189ZM183.78 63.9921C183.78 62.5173 182.778 61.4476 181.4 61.4476C180.024 61.4476 179.021 62.5173 179.021 63.9921C179.021 65.4661 180.024 66.5359 181.4 66.5359C182.778 66.5359 183.78 65.4661 183.78 63.9921Z" fill="white"/>
<path fill-rule="evenodd" clip-rule="evenodd" d="M191.352 67.3638H190.389V64.5693H189.089L186.903 67.3638H185.729L187.972 64.5404C186.853 64.3771 186.249 63.5863 186.249 62.5938C186.249 61.4765 187.018 60.6189 188.406 60.6189H191.351V67.3638H191.352ZM190.389 63.6931V61.4958H188.463C187.691 61.4958 187.26 61.8905 187.26 62.5938C187.26 63.2977 187.692 63.6931 188.463 63.6931H190.389Z" fill="white"/>
<path fill-rule="evenodd" clip-rule="evenodd" d="M120.232 78.9298V72.1842H121.195V77.6093L125.019 72.1842H126.203V78.9298H125.24V73.3593L121.291 78.9298H120.232Z" fill="white"/>
<path fill-rule="evenodd" clip-rule="evenodd" d="M132.755 72.1842H133.717V78.9298H132.755V76.0182H128.902V78.9298H127.938V72.1842H128.902V75.0938H132.755V72.1842Z" fill="white"/>
<path fill-rule="evenodd" clip-rule="evenodd" d="M140.509 73.1093H138.101V78.9291H137.138V73.1093H134.73V72.1842H140.509V73.1093Z" fill="white"/>
<path fill-rule="evenodd" clip-rule="evenodd" d="M147.55 76.0092H141.8C141.992 77.2339 142.966 78.1211 144.208 78.1211C145.2 78.1211 145.924 77.6004 146.337 76.8206H147.347C146.877 78.159 145.605 79.0269 144.208 79.0269C142.283 79.0269 140.8 77.515 140.8 75.558C140.8 73.6004 142.236 72.0884 144.199 72.0884C145.845 72.0884 147.703 73.2457 147.551 76.0099L147.55 76.0092ZM141.79 75.1034H146.548C146.452 73.8511 145.298 72.9935 144.172 72.9935C142.849 72.9935 141.964 73.8801 141.79 75.1034Z" fill="white"/>
<path fill-rule="evenodd" clip-rule="evenodd" d="M153.389 73.1093H149.825V78.9291H148.863V72.1842H153.389V73.1093Z" fill="white"/>
<path fill-rule="evenodd" clip-rule="evenodd" d="M159.504 74.159C159.504 75.2777 158.734 76.1339 157.347 76.1339H155.363V78.9284H154.399V72.1835H157.347C158.734 72.1835 159.504 73.0404 159.504 74.1583V74.159ZM157.318 75.2384C158.088 75.2384 158.493 74.8616 158.493 74.159C158.493 73.4557 158.087 73.0893 157.318 73.0893H155.363V75.2384H157.318Z" fill="white"/>
<path fill-rule="evenodd" clip-rule="evenodd" d="M160.662 78.9298V72.1842H161.625V77.6093L165.45 72.1842H166.634V78.9298H165.67V73.3593L161.722 78.9298H160.662Z" fill="white"/>
<path fill-rule="evenodd" clip-rule="evenodd" d="M173.472 74.159C173.472 75.2777 172.701 76.1339 171.315 76.1339H169.331V78.9284H168.368V72.1835H171.315C172.701 72.1835 173.472 73.0404 173.472 74.1583V74.159ZM171.287 75.2384C172.056 75.2384 172.461 74.8616 172.461 74.159C172.461 73.4557 172.056 73.0893 171.287 73.0893H169.331V75.2384H171.287Z" fill="white"/>
<path fill-rule="evenodd" clip-rule="evenodd" d="M174.196 75.5573C174.196 73.5997 175.727 72.0877 177.711 72.0877C179.696 72.0877 181.227 73.6004 181.227 75.5573C181.227 77.5143 179.696 79.0262 177.711 79.0262C175.727 79.0262 174.196 77.5143 174.196 75.5573ZM180.215 75.5573C180.215 74.1211 179.127 73.0128 177.711 73.0128C176.295 73.0128 175.206 74.1211 175.206 75.5573C175.206 76.9921 176.296 78.1011 177.711 78.1011C179.127 78.1011 180.215 76.9921 180.215 75.5573Z" fill="white"/>
<path fill-rule="evenodd" clip-rule="evenodd" d="M187.729 77.0211C187.729 78.1012 186.949 78.9298 185.552 78.9298H182.529V72.1842H185.543C186.882 72.1842 187.633 72.9832 187.633 74.0137C187.633 74.6309 187.372 75.1606 186.775 75.4885C187.42 75.826 187.729 76.3653 187.729 77.0204L187.729 77.0211ZM183.492 75.133H185.496C186.266 75.133 186.66 74.7487 186.66 74.0633C186.66 73.4082 186.266 73.0707 185.496 73.0707H183.492V75.133ZM185.506 78.0426C186.304 78.0426 186.719 77.6672 186.719 76.9818C186.719 76.3171 186.304 75.972 185.506 75.972H183.492V78.0426H185.506Z" fill="white"/>
<path fill-rule="evenodd" clip-rule="evenodd" d="M194.271 72.1842H195.204V78.9298H194.271V77.6472C193.713 78.429 192.845 78.9883 191.854 78.9883C189.908 78.9883 188.502 77.5411 188.502 75.5567C188.502 73.5715 189.908 72.127 191.854 72.127C192.846 72.127 193.713 72.6857 194.271 73.4668V72.1849V72.1842ZM194.271 75.556C194.271 74.0812 193.269 73.0121 191.892 73.0121C190.515 73.0121 189.512 74.0819 189.512 75.556C189.512 77.0307 190.515 78.0998 191.892 78.0998C193.269 78.0998 194.271 77.0307 194.271 75.556Z" fill="white"/>
<path fill-rule="evenodd" clip-rule="evenodd" d="M201.757 72.1842H202.717V78.9298H201.757V76.0182H197.903V78.9298H196.941V72.1842H197.903V75.0938H201.757V72.1842Z" fill="white"/>
<path fill-rule="evenodd" clip-rule="evenodd" d="M209.27 72.1842H210.231V78.9298H209.27V76.0182H205.415V78.9298H204.454V72.1842H205.415V75.0938H209.27V72.1842Z" fill="white"/>
<path fill-rule="evenodd" clip-rule="evenodd" d="M211.534 75.5573C211.534 73.5997 213.065 72.0877 215.049 72.0877C217.033 72.0877 218.565 73.6004 218.565 75.5573C218.565 77.5143 217.033 79.0262 215.049 79.0262C213.065 79.0262 211.534 77.5143 211.534 75.5573ZM217.553 75.5573C217.553 74.1211 216.465 73.0128 215.049 73.0128C213.633 73.0128 212.544 74.1211 212.544 75.5573C212.544 76.9921 213.634 78.1011 215.049 78.1011C216.465 78.1011 217.553 76.9921 217.553 75.5573Z" fill="white"/>
<path fill-rule="evenodd" clip-rule="evenodd" d="M219.866 78.9298V72.1842H220.829V77.6093L224.652 72.1842H225.837V78.9298H224.873V73.3593L220.925 78.9298H219.866ZM221.079 70.3526H221.87C221.937 70.8348 222.302 71.133 222.851 71.133C223.402 71.133 223.767 70.8348 223.834 70.3526H224.624C224.547 71.2302 223.862 71.8074 222.851 71.8074C221.84 71.8074 221.157 71.2302 221.079 70.3526Z" fill="white"/>
<path fill-rule="evenodd" clip-rule="evenodd" d="M125.568 83.7509H126.502V90.4965H125.568V89.2146C125.01 89.9957 124.142 90.5543 123.151 90.5543C121.206 90.5543 119.8 89.1092 119.8 87.124C119.8 85.1381 121.206 83.6944 123.151 83.6944C124.142 83.6944 125.01 84.2523 125.568 85.0327V83.7515V83.7509ZM125.568 87.124C125.568 85.6492 124.566 84.5802 123.189 84.5802C121.812 84.5802 120.81 85.6486 120.81 87.124C120.81 88.5988 121.812 89.6678 123.189 89.6678C124.566 89.6678 125.568 88.5988 125.568 87.124Z" fill="white"/>
<path fill-rule="evenodd" clip-rule="evenodd" d="M133.341 85.7257C133.341 86.8443 132.57 87.7019 131.184 87.7019H129.199V90.4958H128.236V83.7522H131.184C132.57 83.7522 133.341 84.6077 133.341 85.7257ZM131.155 86.8058C131.924 86.8058 132.33 86.4297 132.33 85.7257C132.33 85.0238 131.924 84.656 131.155 84.656H129.2V86.8051H131.155V86.8058Z" fill="white"/>
<path fill-rule="evenodd" clip-rule="evenodd" d="M139.987 90.4965H138.813L136.704 87.7405L134.604 90.4965H133.439L136.107 87.0661L133.555 83.7508H134.739L136.722 86.3325L138.689 83.7508H139.863L137.32 87.0179L139.987 90.4965Z" fill="white"/>
<path fill-rule="evenodd" clip-rule="evenodd" d="M140.953 90.4965V83.7508H141.915V89.176L145.74 83.7508H146.926V90.4965H145.96V84.926L142.013 90.4965H140.953Z" fill="white"/>
<path fill-rule="evenodd" clip-rule="evenodd" d="M153.715 84.6759H151.307V90.4958H150.344V84.6759H147.936V83.7508H153.715V84.6759Z" fill="white"/>
<path fill-rule="evenodd" clip-rule="evenodd" d="M160.757 87.5759H155.007C155.199 88.7992 156.173 89.6871 157.415 89.6871C158.407 89.6871 159.129 89.1664 159.543 88.3866H160.553C160.082 89.7264 158.812 90.5929 157.415 90.5929C155.489 90.5929 154.006 89.0809 154.006 87.1233C154.006 85.1664 155.441 83.6537 157.406 83.6537C159.052 83.6537 160.91 84.8109 160.756 87.5759H160.757ZM154.997 86.6694H159.756C159.659 85.4171 158.503 84.5595 157.378 84.5595C156.057 84.5595 155.171 85.446 154.998 86.6694H154.997Z" fill="white"/>
<path fill-rule="evenodd" clip-rule="evenodd" d="M166.624 90.4965L164.015 87.3065L163.032 88.222V90.4965H162.068V83.7508H163.032V87.104L166.604 83.7508H167.791L164.708 86.6425L167.886 90.4965H166.624Z" fill="white"/>
<path fill-rule="evenodd" clip-rule="evenodd" d="M174.098 84.6759H171.691V90.4958H170.728V84.6759H168.321V83.7508H174.098V84.6759Z" fill="white"/>
<path fill-rule="evenodd" clip-rule="evenodd" d="M179.656 83.7508H180.736L178.039 89.3875C177.674 90.13 177.192 90.5247 176.325 90.5247C176.063 90.5247 175.526 90.5054 175.111 90.4965V89.5714H176.257C176.739 89.5714 176.892 89.4853 177.143 89.0038L174.341 83.7508H175.447L177.692 87.9719L179.656 83.7508H179.656Z" fill="white"/>
<path fill-rule="evenodd" clip-rule="evenodd" d="M186.805 85.7257C186.805 86.8443 186.033 87.7019 184.647 87.7019H182.664V90.4958H181.701V83.7522H184.647C186.033 83.7522 186.805 84.6077 186.805 85.7257H186.805ZM184.62 86.8058C185.389 86.8058 185.793 86.4297 185.793 85.7257C185.793 85.0238 185.389 84.656 184.62 84.656H182.664V86.8051H184.62V86.8058Z" fill="white"/>
<path fill-rule="evenodd" clip-rule="evenodd" d="M190.909 86.5454C192.296 86.5454 193.066 87.403 193.066 88.5209C193.066 89.6389 192.296 90.4958 190.909 90.4958H187.961V83.7502H188.925V86.5447H190.909V86.5454ZM190.88 89.59C191.65 89.59 192.055 89.2146 192.055 88.5106C192.055 87.8087 191.65 87.4422 190.88 87.4422H188.925V89.59H190.88ZM194.126 83.7502H195.089V90.4958H194.126V83.7502Z" fill="white"/>
<path fill-rule="evenodd" clip-rule="evenodd" d="M288.52 83.558C289.115 83.558 289.697 83.7109 290.265 84.0181C290.83 84.3226 291.273 84.7614 291.591 85.3296C291.905 85.9 292.065 86.4944 292.065 87.1116C292.065 87.7233 291.909 88.3129 291.598 88.8771C291.285 89.4426 290.849 89.8807 290.285 90.1927C289.722 90.5061 289.132 90.6618 288.52 90.6618C287.904 90.6618 287.315 90.5061 286.752 90.1927C286.187 89.8814 285.749 89.4433 285.436 88.8771C285.123 88.3129 284.966 87.7233 284.966 87.1116C284.966 86.4944 285.126 85.9 285.443 85.3296C285.763 84.7614 286.206 84.3226 286.773 84.0181C287.342 83.7109 287.923 83.558 288.52 83.558H288.52ZM288.52 84.1462C288.02 84.1462 287.533 84.2751 287.061 84.5299C286.59 84.7855 286.22 85.1512 285.953 85.6265C285.687 86.1018 285.554 86.5971 285.554 87.1109C285.554 87.6234 285.686 88.1132 285.947 88.5822C286.208 89.0513 286.575 89.4178 287.046 89.6788C287.516 89.9406 288.007 90.0728 288.52 90.0728C289.029 90.0728 289.522 89.9406 289.992 89.6788C290.462 89.4178 290.828 89.0506 291.088 88.5822C291.348 88.1132 291.479 87.6234 291.479 87.1109C291.479 86.5971 291.346 86.1018 291.081 85.6265C290.815 85.1512 290.446 84.7848 289.973 84.5299C289.499 84.2744 289.014 84.1462 288.52 84.1462H288.52ZM289.658 87.6833L290.235 87.8569C290.141 88.2488 289.941 88.5636 289.637 88.7965C289.33 89.0313 288.959 89.1484 288.524 89.1484C287.973 89.1484 287.525 88.97 287.179 88.6112C286.834 88.253 286.661 87.7584 286.661 87.124C286.661 86.71 286.74 86.3498 286.898 86.0446C287.054 85.7381 287.278 85.508 287.567 85.3531C287.857 85.1967 288.19 85.1195 288.563 85.1195C288.98 85.1195 289.327 85.2194 289.603 85.4206C289.879 85.621 290.067 85.8945 290.168 86.2382L289.61 86.3828C289.514 86.1466 289.377 85.9654 289.194 85.8394C289.008 85.7126 288.794 85.6506 288.544 85.6506C288.184 85.6506 287.884 85.7787 287.65 86.0357C287.415 86.2926 287.298 86.6625 287.298 87.1412C287.298 87.6213 287.409 87.9843 287.63 88.2309C287.851 88.4769 288.139 88.6001 288.489 88.6001C288.772 88.6001 289.021 88.5189 289.235 88.3529C289.448 88.1896 289.589 87.9664 289.658 87.6847L289.658 87.6833Z" fill="white"/>
<path fill-rule="evenodd" clip-rule="evenodd" d="M143.249 21.9747C143.249 26.782 139.774 30.4734 133.554 30.4734H120.083V0.428444H133.511C139.474 0.428444 142.82 3.99102 142.82 8.58338C142.82 11.3297 141.661 13.6917 139.002 15.1506C141.875 16.6529 143.248 19.0555 143.248 21.9747H143.249ZM124.374 13.5629H133.297C136.728 13.5629 138.486 11.8449 138.486 8.7976C138.486 5.87976 136.728 4.37814 133.297 4.37814H124.374V13.5629ZM133.339 26.5237C136.899 26.5237 138.743 24.8505 138.743 21.8032C138.743 18.8413 136.899 17.2963 133.339 17.2963H124.374V26.5237H133.339Z" fill="white"/>
<path fill-rule="evenodd" clip-rule="evenodd" d="M148.182 18.1979V0.428444H152.471V18.1979C152.471 23.0913 156.246 26.7813 161.265 26.7813C166.283 26.7813 170.059 23.092 170.059 18.1979V0.428444H174.349V18.1979C174.349 25.4505 168.73 30.9018 161.265 30.9018C153.801 30.9018 148.181 25.4505 148.181 18.1979H148.182Z" fill="white"/>
<path fill-rule="evenodd" clip-rule="evenodd" d="M201.289 30.4734L191.551 18.0264H185.932V30.4734H181.642V0.428444H194.769C200.944 0.428444 204.378 4.24795 204.378 9.22743C204.378 13.6483 201.674 17.1681 196.7 17.8969L206.693 30.4734H201.289ZM185.931 4.33474V14.1215H194.511C197.942 14.1215 199.873 12.3616 199.873 9.22812C199.873 6.09468 197.942 4.33543 194.511 4.33543H185.931V4.33474Z" fill="white"/>
<path fill-rule="evenodd" clip-rule="evenodd" d="M208.196 15.4509C208.196 6.73872 215.016 0 223.853 0C232.689 0 239.51 6.73872 239.51 15.4509C239.51 24.1638 232.689 30.9025 223.853 30.9025C215.016 30.9025 208.196 24.1638 208.196 15.4509ZM235.006 15.4509C235.006 9.05591 230.158 4.11983 223.853 4.11983C217.548 4.11983 212.7 9.05591 212.7 15.4509C212.7 21.8459 217.548 26.782 223.853 26.782C230.158 26.782 235.006 21.8459 235.006 15.4509Z" fill="white"/>
<path fill-rule="evenodd" clip-rule="evenodd" d="M266.752 22.3185C266.752 27.683 261.946 30.9018 255.17 30.9018C248.391 30.9018 243.587 27.683 243.587 22.3185C243.587 19.3138 245.218 16.8237 248.307 15.4082C245.69 13.8632 244.403 11.3304 244.36 8.49797C244.275 3.39037 248.563 0 255.17 0C261.775 0 266.066 3.39037 265.981 8.49797C265.938 11.3311 264.65 13.8632 262.036 15.4082C265.122 16.8237 266.753 19.3138 266.753 22.3185H266.752ZM262.546 22.3612C262.546 19.0996 259.758 17.1248 255.17 17.1248C250.58 17.1248 247.792 19.1003 247.792 22.3612C247.792 25.3651 250.58 27.2111 255.17 27.2111C259.758 27.2111 262.546 25.3651 262.546 22.3612ZM248.521 8.71288C248.521 11.9744 251.051 13.9493 255.17 13.9493C259.288 13.9493 261.819 11.9744 261.819 8.71288C261.819 5.49403 259.288 3.56189 255.17 3.56189C251.051 3.56189 248.521 5.49334 248.521 8.71288Z" fill="white"/>
<path fill-rule="evenodd" clip-rule="evenodd" d="M275.974 26.439H292.618V30.4727H269.711L269.583 26.8254L282.753 16.5661C285.97 14.0774 288.028 11.889 288.028 8.8844C288.028 5.83637 285.327 3.90561 281.765 3.90561C278.549 3.90561 275.159 5.1076 274.43 9.87217H269.969C270.526 3.64868 275.76 0 281.765 0C288.543 0 292.361 3.64868 292.361 8.45457C292.361 13.3479 289.144 16.3085 283.567 20.6019L275.974 26.4383V26.439Z" fill="white"/>
</g>
<defs>
<clipPath id="clip0_278_863">
<rect width="293" height="91" fill="white"/>
</clipPath>
</defs>
</svg>
