<svg width="50" height="56" viewBox="0 0 50 56" fill="none" xmlns="http://www.w3.org/2000/svg">
<rect width="50" height="50.1942" fill="white"/>
<rect width="14.7345" height="14.7345" transform="matrix(0.705735 0.708476 -0.705735 0.708476 25.2944 34.2502)" fill="white"/>
<g clip-path="url(#clip0_172_501)">
<path d="M44.7052 25.8339H25.3081V24.9508H44.7052V25.8339Z" fill="black"/>
<path d="M5.88184 44.8795H44.7054V5.90521H5.88184V44.8795ZM25.3083 43.9964C15.0668 43.9964 6.76219 35.6658 6.76219 25.3924C6.73284 15.1189 15.0375 6.78832 25.3083 6.78832C35.5497 6.78832 43.8544 15.1189 43.8544 25.3924C43.8544 35.6658 35.5497 43.9964 25.3083 43.9964ZM42.2697 9.96749C41.3894 9.96749 40.6851 9.26101 40.6851 8.3779C40.6851 7.4948 41.3894 6.78832 42.2697 6.78832C43.1501 6.78832 43.8544 7.4948 43.8544 8.3779C43.8544 9.26101 43.1501 9.96749 42.2697 9.96749Z" fill="black"/>
</g>
<defs>
<clipPath id="clip0_172_501">
<rect width="38.8235" height="38.9743" fill="white" transform="translate(5.88184 5.90521)"/>
</clipPath>
</defs>
</svg>
