<svg width="78" height="86" viewBox="0 0 78 86" fill="none" xmlns="http://www.w3.org/2000/svg">
<rect width="78" height="78.303" fill="white"/>
<rect width="22.9858" height="22.9858" transform="matrix(0.705735 0.708476 -0.705735 0.708476 39.459 53.4303)" fill="white"/>
<g clip-path="url(#clip0_172_501)">
<path d="M69.7409 40.3009H39.4814V38.9233H69.7409V40.3009Z" fill="black"/>
<path d="M9.17627 70.0121H69.741V9.21213H9.17627V70.0121ZM39.4815 68.6344C23.5049 68.6344 10.5496 55.6387 10.5496 39.6121C10.5038 23.5855 23.4591 10.5898 39.4815 10.5898C55.4581 10.5898 68.4134 23.5855 68.4134 39.6121C68.4134 55.6387 55.4581 68.6344 39.4815 68.6344ZM65.9414 15.5493C64.568 15.5493 63.4693 14.4472 63.4693 13.0695C63.4693 11.6919 64.568 10.5898 65.9414 10.5898C67.3147 10.5898 68.4134 11.6919 68.4134 13.0695C68.4134 14.4472 67.3147 15.5493 65.9414 15.5493Z" fill="black"/>
</g>
<defs>
<clipPath id="clip0_172_501">
<rect width="60.5647" height="60.7999" fill="white" transform="translate(9.17627 9.21213)"/>
</clipPath>
</defs>
</svg>
