<svg width="30" height="30" viewBox="0 0 30 30" fill="none" xmlns="http://www.w3.org/2000/svg">
<path d="M21.4639 30H8.53612C3.82129 30 0 26.1597 0 21.4639V8.53612C0 3.82129 3.8403 0 8.53612 0H21.4639C26.1787 0 30 3.8403 30 8.53612V21.4639C30 26.1597 26.1597 30 21.4639 30ZM8.53612 2.56654C5.24715 2.56654 2.56654 5.24715 2.56654 8.53612V21.4639C2.56654 24.7528 5.24715 27.4335 8.53612 27.4335H21.4639C24.7528 27.4335 27.4335 24.7528 27.4335 21.4639V8.53612C27.4335 5.24715 24.7528 2.56654 21.4639 2.56654H8.53612Z" fill="black"/>
<path d="M14.9999 22.6806C10.7604 22.6806 7.31934 19.2395 7.31934 14.9999C7.31934 10.7604 10.7604 7.31934 14.9999 7.31934C19.2395 7.31934 22.6806 10.7604 22.6806 14.9999C22.6806 19.2205 19.2205 22.6806 14.9999 22.6806ZM14.9999 9.88588C12.1672 9.88588 9.88588 12.1672 9.88588 14.9999C9.88588 17.8326 12.1863 20.114 14.9999 20.114C17.8136 20.114 20.114 17.8136 20.114 14.9999C20.114 12.1863 17.8136 9.88588 14.9999 9.88588Z" fill="black"/>
<path d="M24.8479 6.86315C24.8479 7.88976 24.0304 8.70726 23.0038 8.70726C21.9772 8.70726 21.1597 7.88976 21.1597 6.86315C21.1597 5.83653 21.9772 5.01904 23.0038 5.01904C24.0304 5.01904 24.8479 5.85554 24.8479 6.86315Z" fill="black"/>
</svg>
